<svg width="22" height="22" viewBox="0 0 22 22" fill="none" xmlns="http://www.w3.org/2000/svg">
<path fill-rule="evenodd" clip-rule="evenodd" d="M11.25 0.5C10.645 0.5 10.088 0.65 9.479 0.902C8.89 1.146 8.206 1.505 7.355 1.952L5.287 3.037C4.242 3.585 3.407 4.024 2.76 4.455C2.092 4.902 1.576 5.372 1.201 6.009C0.827 6.644 0.659 7.332 0.578 8.151C0.5 8.946 0.5 9.923 0.5 11.153V11.347C0.5 12.577 0.5 13.554 0.578 14.349C0.659 15.169 0.828 15.856 1.201 16.491C1.576 17.128 2.091 17.598 2.761 18.045C3.406 18.476 4.242 18.915 5.287 19.463L7.355 20.548C8.206 20.995 8.89 21.354 9.479 21.598C10.089 21.85 10.645 22 11.25 22C11.855 22 12.412 21.85 13.021 21.598C13.61 21.354 14.294 20.995 15.145 20.548L17.213 19.464C18.258 18.915 19.093 18.476 19.739 18.045C20.409 17.598 20.924 17.128 21.299 16.491C21.673 15.856 21.841 15.168 21.922 14.349C22 13.554 22 12.577 22 11.348V11.152C22 9.923 22 8.946 21.922 8.151C21.841 7.331 21.672 6.644 21.299 6.009C20.924 5.372 20.409 4.902 19.739 4.455C19.094 4.024 18.258 3.585 17.213 3.037L15.145 1.952C14.294 1.505 13.61 1.146 13.021 0.902C12.411 0.65 11.855 0.5 11.25 0.5ZM8.02 3.296C8.91 2.829 9.534 2.503 10.052 2.289C10.556 2.08 10.911 2 11.25 2C11.59 2 11.944 2.08 12.448 2.289C12.966 2.503 13.589 2.829 14.479 3.296L16.479 4.346C17.569 4.917 18.334 5.32 18.907 5.702C19.189 5.891 19.41 6.066 19.59 6.242L16.259 7.907L7.759 3.433L8.02 3.296ZM6.195 4.254L6.021 4.346C4.931 4.917 4.166 5.32 3.594 5.702C3.35012 5.86048 3.12147 6.04125 2.911 6.242L11.25 10.412L14.607 8.732L6.401 4.414C6.32404 4.3723 6.25445 4.31824 6.195 4.254ZM2.188 7.557C2.138 7.771 2.099 8.014 2.071 8.297C2.001 9.011 2 9.914 2 11.191V11.308C2 12.586 2 13.489 2.071 14.202C2.14 14.899 2.271 15.35 2.494 15.73C2.716 16.107 3.037 16.426 3.594 16.798C4.166 17.18 4.931 17.583 6.021 18.154L8.021 19.204C8.911 19.671 9.534 19.997 10.052 20.211C10.2147 20.2783 10.364 20.3333 10.5 20.376V11.713L2.188 7.557ZM12 20.375C12.136 20.333 12.2853 20.2783 12.448 20.211C12.966 19.997 13.589 19.671 14.479 19.204L16.479 18.154C17.569 17.582 18.334 17.18 18.907 16.798C19.463 16.426 19.784 16.107 20.007 15.73C20.23 15.35 20.36 14.9 20.429 14.202C20.499 13.489 20.5 12.586 20.5 11.309V11.192C20.5 9.914 20.5 9.011 20.429 8.298C20.4055 8.04914 20.3664 7.80199 20.312 7.558L17 9.213V12.25C17 12.4489 16.921 12.6397 16.7803 12.7803C16.6397 12.921 16.4489 13 16.25 13C16.0511 13 15.8603 12.921 15.7197 12.7803C15.579 12.6397 15.5 12.4489 15.5 12.25V9.964L12 11.714V20.375Z" fill="#64748B"/>
</svg>
