<svg width="18" height="17" viewBox="0 0 18 17" fill="none" xmlns="http://www.w3.org/2000/svg">
<path d="M15.8754 3.7478L13.7511 1.62421C13.6183 1.49137 13.4382 1.41671 13.2503 1.41667H4.75033C4.56248 1.41671 4.38234 1.49137 4.24953 1.62421L2.12524 3.7478C2.05925 3.81358 2.00689 3.89174 1.97115 3.9778C1.93542 4.06385 1.91701 4.15612 1.91699 4.2493V13.4583C1.91699 14.2396 2.55237 14.875 3.33366 14.875H14.667C15.4483 14.875 16.0837 14.2396 16.0837 13.4583V4.2493C16.0836 4.15612 16.0652 4.06385 16.0295 3.9778C15.9938 3.89174 15.9414 3.81358 15.8754 3.7478ZM5.04358 2.83334H12.9571L13.6647 3.54096H4.33595L5.04358 2.83334ZM3.33366 13.4583V4.95763H14.667L14.6684 13.4583H3.33366Z" fill="#8E8E8E"/>
<path d="M11.1247 8.49999H6.87467V7.08333H5.45801V9.91666H12.5413V7.08333H11.1247V8.49999Z" fill="#8E8E8E"/>
</svg>
