<svg width="21" height="20" viewBox="0 0 21 20" fill="none" xmlns="http://www.w3.org/2000/svg">
<path d="M7.21 5.71002L9.5 3.41002V13C9.5 13.2652 9.60536 13.5196 9.79289 13.7071C9.98043 13.8947 10.2348 14 10.5 14C10.7652 14 11.0196 13.8947 11.2071 13.7071C11.3946 13.5196 11.5 13.2652 11.5 13V3.41002L13.79 5.71002C13.883 5.80375 13.9936 5.87814 14.1154 5.92891C14.2373 5.97968 14.368 6.00582 14.5 6.00582C14.632 6.00582 14.7627 5.97968 14.8846 5.92891C15.0064 5.87814 15.117 5.80375 15.21 5.71002C15.3037 5.61706 15.3781 5.50645 15.4289 5.3846C15.4797 5.26274 15.5058 5.13203 15.5058 5.00002C15.5058 4.86801 15.4797 4.7373 15.4289 4.61544C15.3781 4.49358 15.3037 4.38298 15.21 4.29002L11.21 0.290018C11.1149 0.198978 11.0028 0.127613 10.88 0.0800184C10.6365 -0.0199996 10.3635 -0.0199996 10.12 0.0800184C9.99725 0.127613 9.8851 0.198978 9.79 0.290018L5.79 4.29002C5.69676 4.38326 5.6228 4.49395 5.57234 4.61577C5.52188 4.73759 5.49591 4.86816 5.49591 5.00002C5.49591 5.13188 5.52188 5.26245 5.57234 5.38427C5.6228 5.50609 5.69676 5.61678 5.79 5.71002C5.88324 5.80326 5.99393 5.87722 6.11575 5.92768C6.23757 5.97814 6.36814 6.00411 6.5 6.00411C6.63186 6.00411 6.76243 5.97814 6.88425 5.92768C7.00607 5.87722 7.11676 5.80326 7.21 5.71002ZM19.5 10C19.2348 10 18.9804 10.1054 18.7929 10.2929C18.6054 10.4804 18.5 10.7348 18.5 11V17C18.5 17.2652 18.3946 17.5196 18.2071 17.7071C18.0196 17.8947 17.7652 18 17.5 18H3.5C3.23478 18 2.98043 17.8947 2.79289 17.7071C2.60536 17.5196 2.5 17.2652 2.5 17V11C2.5 10.7348 2.39464 10.4804 2.20711 10.2929C2.01957 10.1054 1.76522 10 1.5 10C1.23478 10 0.98043 10.1054 0.792893 10.2929C0.605357 10.4804 0.5 10.7348 0.5 11V17C0.5 17.7957 0.816071 18.5587 1.37868 19.1213C1.94129 19.6839 2.70435 20 3.5 20H17.5C18.2956 20 19.0587 19.6839 19.6213 19.1213C20.1839 18.5587 20.5 17.7957 20.5 17V11C20.5 10.7348 20.3946 10.4804 20.2071 10.2929C20.0196 10.1054 19.7652 10 19.5 10Z" fill="#8EC156"/>
</svg>
