<svg width="21" height="21" viewBox="0 0 21 21" fill="none" xmlns="http://www.w3.org/2000/svg">
<path d="M2.30054 9.75801C2.39072 9.77588 2.47699 9.81149 2.55347 9.8625C2.62991 9.91351 2.69571 9.97949 2.74683 10.0559C2.79784 10.1322 2.83333 10.2178 2.85132 10.3078C2.86932 10.398 2.86918 10.4911 2.85132 10.5813C2.83344 10.6713 2.79778 10.7568 2.74683 10.8332V10.8342L2.61499 11.0285L2.61401 11.0275C1.90289 12.0949 1.52419 13.3495 1.52417 14.632V15.8C1.52417 15.9857 1.45037 16.1638 1.31909 16.2951C1.18784 16.4263 1.00953 16.5002 0.823975 16.5002C0.638603 16.5001 0.460989 16.4261 0.329834 16.2951C0.198559 16.1638 0.124757 15.9857 0.124756 15.8V14.634C0.125126 13.074 0.587128 11.5488 1.45288 10.2512L1.58276 10.0568C1.63372 9.98045 1.69887 9.91459 1.77515 9.86348C1.85155 9.81234 1.93792 9.77602 2.02808 9.75801C2.11797 9.74012 2.21062 9.74024 2.30054 9.75801Z" fill="#64748B" stroke="#64748B" stroke-width="0.2"/>
<path d="M10.1262 9.74718C10.2177 9.76693 10.3045 9.80471 10.3811 9.85851C10.4568 9.91173 10.5212 9.97946 10.5706 10.0577L10.6907 10.2374C11.3967 11.2974 11.7741 12.5429 11.7747 13.8165V13.9161H10.3743V13.8165C10.3743 12.8189 10.0795 11.8445 9.52661 11.0138L9.40747 10.8351C9.35357 10.7589 9.31524 10.6723 9.29517 10.5812C9.27513 10.49 9.27333 10.3956 9.29028 10.3038C9.30735 10.2117 9.34319 10.1232 9.39478 10.045C9.4463 9.96704 9.51327 9.90057 9.59106 9.84874C9.66902 9.79684 9.75686 9.76072 9.84888 9.74327C9.94068 9.72591 10.0349 9.72751 10.1262 9.74718ZM6.17896 7.73839C6.36452 7.73846 6.54286 7.81225 6.67407 7.94347C6.80499 8.07461 6.87905 8.2523 6.87915 8.43761C6.87915 8.62311 6.80515 8.80148 6.67407 8.93273C6.54286 9.06394 6.36452 9.13774 6.17896 9.13781H5.91626C4.64184 9.13781 3.45261 9.77403 2.74634 10.8331L2.69067 10.9171L2.60767 10.8614L1.60864 10.1964L1.52563 10.1407L1.5813 10.0577C2.0571 9.34448 2.70138 8.75923 3.45728 8.3546C4.21306 7.95007 5.05707 7.73883 5.91431 7.73839H6.17896Z" fill="#64748B" stroke="#64748B" stroke-width="0.2"/>
<path d="M6.23779 7.73839C7.09503 7.73881 7.93903 7.95009 8.69482 8.3546C9.4507 8.75921 10.095 9.34451 10.5708 10.0577L10.6265 10.1407L10.5435 10.1964L9.54541 10.8614L9.46143 10.9171L9.40674 10.8331C8.70054 9.77386 7.51106 9.13789 6.23779 9.13781H5.97314C5.88137 9.13775 5.79036 9.12019 5.70557 9.08507C5.62068 9.04991 5.54398 8.99768 5.479 8.93273C5.41405 8.86777 5.36184 8.79102 5.32666 8.70617C5.29148 8.62124 5.27393 8.52954 5.27393 8.43761C5.27398 8.34582 5.29153 8.25484 5.32666 8.17003C5.36184 8.08511 5.41401 8.00847 5.479 7.94347C5.544 7.87847 5.62065 7.8263 5.70557 7.79113C5.79037 7.756 5.88135 7.73844 5.97314 7.73839H6.23779Z" fill="#64748B" stroke="#64748B" stroke-width="0.2"/>
<path d="M10.6332 13.5648C10.8154 13.5286 11.0051 13.5661 11.1595 13.6693C11.3139 13.7726 11.4212 13.9335 11.4574 14.1156C11.4935 14.2977 11.4551 14.4867 11.3519 14.641L11.1937 14.8783C10.4818 15.9461 10.102 17.2014 10.1019 18.4848V19.725C10.1019 19.9107 10.0281 20.0888 9.89685 20.2201C9.76558 20.3514 9.58738 20.4252 9.40173 20.4252C9.21617 20.4251 9.03783 20.3513 8.90662 20.2201C8.77548 20.0889 8.70154 19.9105 8.70154 19.725V18.4848C8.70143 16.9255 9.16303 15.4005 10.0277 14.1029L10.1879 13.8627C10.2911 13.7084 10.4511 13.6011 10.6332 13.5648ZM6.00037 1.00039C7.06105 1.00049 8.07845 1.4213 8.82849 2.17129C9.57864 2.92144 10.0004 3.93952 10.0004 5.00039C10.0003 6.06112 9.57854 7.07846 8.82849 7.82852C8.07844 8.57857 7.06109 9.00029 6.00037 9.00039C4.9395 9.00039 3.92141 8.57866 3.17126 7.82852C2.42127 7.07847 2.00047 6.06107 2.00037 5.00039C2.00037 3.93952 2.42112 2.92144 3.17126 2.17129C3.92141 1.42114 4.9395 1.00039 6.00037 1.00039ZM6.00037 2.39981C5.3108 2.39981 4.64909 2.67393 4.1615 3.16152C3.6739 3.64912 3.39978 4.31083 3.39978 5.00039C3.39988 5.68977 3.67406 6.35079 4.1615 6.83828C4.64909 7.32588 5.3108 7.6 6.00037 7.6C6.34157 7.59995 6.67926 7.5323 6.99451 7.40176C7.30995 7.2711 7.59682 7.07971 7.83826 6.83828C8.07969 6.59685 8.27107 6.30998 8.40173 5.99453C8.53227 5.67928 8.59992 5.3416 8.59998 5.00039C8.59998 4.65899 8.53237 4.32069 8.40173 4.00527C8.27107 3.68983 8.07969 3.40296 7.83826 3.16152C7.59684 2.92014 7.30991 2.72869 6.99451 2.59805C6.67928 2.46753 6.34155 2.39986 6.00037 2.39981Z" fill="#64748B" stroke="#64748B" stroke-width="0.2"/>
<path d="M18.9045 13.5648C19.0866 13.601 19.2466 13.7084 19.3499 13.8627H19.3508L19.51 14.1029L19.6672 14.349C20.4308 15.5913 20.8369 17.0228 20.8372 18.4848V19.725C20.8372 19.9106 20.7634 20.0888 20.6321 20.2201C20.5008 20.3514 20.3226 20.4252 20.137 20.4252C19.9514 20.4251 19.7731 20.3513 19.6418 20.2201C19.5107 20.0889 19.4368 19.9106 19.4368 19.725V18.4848C19.4367 17.2014 19.0569 15.9461 18.345 14.8783V14.8793L18.1858 14.641C18.0826 14.4866 18.0451 14.2978 18.0813 14.1156C18.1175 13.9334 18.2247 13.7725 18.3792 13.6693C18.5335 13.5663 18.7225 13.5287 18.9045 13.5648ZM14.8723 11.5004C15.058 11.5004 15.2362 11.5742 15.3674 11.7055C15.4986 11.8366 15.5724 12.0141 15.5725 12.1996C15.5725 12.3853 15.4987 12.5634 15.3674 12.6947C15.2362 12.826 15.058 12.8998 14.8723 12.8998H14.6038C13.9602 12.8997 13.3264 13.059 12.759 13.3627C12.1917 13.6664 11.7077 14.1054 11.3508 14.641L11.2961 14.724L11.2122 14.6684L10.2151 14.0023L10.1321 13.9477L10.1877 13.8637C10.6723 13.1368 11.3287 12.5407 12.0989 12.1283C12.8693 11.7159 13.73 11.5005 14.6038 11.5004H14.8723Z" fill="#64748B" stroke="#64748B" stroke-width="0.2"/>
<path d="M14.9341 11.5004C15.8081 11.5003 16.6684 11.716 17.439 12.1283C18.2096 12.5407 18.8673 13.1364 19.3521 13.8637L19.4067 13.9477L19.3237 14.0023L18.3257 14.6684L18.2427 14.724L18.187 14.641C17.8302 14.1054 17.3462 13.6664 16.7788 13.3627C16.2114 13.059 15.5777 12.8997 14.9341 12.8998H14.6636C14.4781 12.8997 14.3006 12.8258 14.1694 12.6947C14.0382 12.5634 13.9644 12.3853 13.9644 12.1996C13.9645 12.0141 14.0383 11.8367 14.1694 11.7055C14.3006 11.5743 14.4781 11.5005 14.6636 11.5004H14.9341Z" fill="#64748B" stroke="#64748B" stroke-width="0.2"/>
<path d="M14.7003 4.90039C15.761 4.90049 16.7784 5.3213 17.5284 6.07129C18.2786 6.82143 18.7003 7.83952 18.7003 8.90039C18.7002 9.96112 18.2785 10.9785 17.5284 11.7285C16.7784 12.4786 15.761 12.9003 14.7003 12.9004C13.6395 12.9004 12.6214 12.4787 11.8712 11.7285C11.1212 10.9785 10.7004 9.96107 10.7003 8.90039C10.7003 7.83952 11.1211 6.82143 11.8712 6.07129C12.6214 5.32114 13.6395 4.90039 14.7003 4.90039ZM14.7003 6.2998C14.0108 6.2998 13.349 6.57393 12.8615 7.06152C12.3739 7.54912 12.0997 8.21083 12.0997 8.90039C12.0998 9.58977 12.374 10.2508 12.8615 10.7383C13.349 11.2259 14.0108 11.5 14.7003 11.5C15.0415 11.4999 15.3792 11.4323 15.6945 11.3018C16.0099 11.1711 16.2968 10.9797 16.5382 10.7383C16.7796 10.4968 16.971 10.21 17.1017 9.89453C17.2322 9.57928 17.2999 9.2416 17.2999 8.90039C17.2999 8.55899 17.2323 8.22069 17.1017 7.90527C16.971 7.58983 16.7796 7.30296 16.5382 7.06152C16.2968 6.82014 16.0099 6.62869 15.6945 6.49805C15.3792 6.36753 15.0415 6.29986 14.7003 6.2998Z" fill="#64748B" stroke="#64748B" stroke-width="0.2"/>
</svg>
