<svg width="21" height="21" viewBox="0 0 21 21" fill="none" xmlns="http://www.w3.org/2000/svg">
<path d="M10.45 16.5C10.8 16.5 11.096 16.379 11.338 16.137C11.58 15.895 11.7007 15.5993 11.7 15.25C11.6993 14.9007 11.5787 14.6047 11.338 14.362C11.0973 14.1193 10.8013 13.9987 10.45 14C10.0987 14.0013 9.803 14.1223 9.563 14.363C9.323 14.6037 9.202 14.8993 9.2 15.25C9.198 15.6007 9.319 15.8967 9.563 16.138C9.807 16.3793 10.1027 16.5 10.45 16.5ZM9.55 12.65H11.4C11.4 12.1 11.4627 11.6667 11.588 11.35C11.7133 11.0333 12.0673 10.6 12.65 10.05C13.0833 9.61667 13.425 9.204 13.675 8.812C13.925 8.42 14.05 7.94933 14.05 7.4C14.05 6.46667 13.7083 5.75 13.025 5.25C12.3417 4.75 11.5333 4.5 10.6 4.5C9.65 4.5 8.87933 4.75 8.288 5.25C7.69667 5.75 7.284 6.35 7.05 7.05L8.7 7.7C8.78333 7.4 8.971 7.075 9.263 6.725C9.555 6.375 10.0007 6.2 10.6 6.2C11.1333 6.2 11.5333 6.346 11.8 6.638C12.0667 6.93 12.2 7.25067 12.2 7.6C12.2 7.93333 12.1 8.246 11.9 8.538C11.7 8.83 11.45 9.10067 11.15 9.35C10.4167 10 9.96667 10.4917 9.8 10.825C9.63333 11.1583 9.55 11.7667 9.55 12.65ZM10.5 20.5C9.11667 20.5 7.81667 20.2377 6.6 19.713C5.38334 19.1883 4.325 18.4757 3.425 17.575C2.525 16.6743 1.81267 15.616 1.288 14.4C0.763335 13.184 0.500668 11.884 0.500001 10.5C0.499335 9.116 0.762001 7.816 1.288 6.6C1.814 5.384 2.52633 4.32567 3.425 3.425C4.32367 2.52433 5.382 1.812 6.6 1.288C7.818 0.763999 9.118 0.501333 10.5 0.499999C11.882 0.498666 13.182 0.761333 14.4 1.288C15.618 1.81467 16.6763 2.527 17.575 3.425C18.4737 4.323 19.1863 5.38133 19.713 6.6C20.2397 7.81867 20.502 9.11867 20.5 10.5C20.498 11.8813 20.2353 13.1813 19.712 14.4C19.1887 15.6187 18.4763 16.677 17.575 17.575C16.6737 18.473 15.6153 19.1857 14.4 19.713C13.1847 20.2403 11.8847 20.5027 10.5 20.5ZM10.5 18.5C12.7333 18.5 14.625 17.725 16.175 16.175C17.725 14.625 18.5 12.7333 18.5 10.5C18.5 8.26667 17.725 6.375 16.175 4.825C14.625 3.275 12.7333 2.5 10.5 2.5C8.26667 2.5 6.375 3.275 4.825 4.825C3.275 6.375 2.5 8.26667 2.5 10.5C2.5 12.7333 3.275 14.625 4.825 16.175C6.375 17.725 8.26667 18.5 10.5 18.5Z" fill="#64748B"/>
</svg>
