<svg width="29" height="28" viewBox="0 0 29 28" fill="none" xmlns="http://www.w3.org/2000/svg">
<path d="M10.4168 16.3333C10.8036 16.3333 11.1745 16.1797 11.448 15.9062C11.7215 15.6327 11.8752 15.2618 11.8752 14.875C11.8752 14.4882 11.7215 14.1173 11.448 13.8438C11.1745 13.5703 10.8036 13.4167 10.4168 13.4167C10.0301 13.4167 9.65912 13.5703 9.38563 13.8438C9.11214 14.1173 8.9585 14.4882 8.9585 14.875C8.9585 15.2618 9.11214 15.6327 9.38563 15.9062C9.65912 16.1797 10.0301 16.3333 10.4168 16.3333ZM10.4168 20.4167C10.8036 20.4167 11.1745 20.263 11.448 19.9895C11.7215 19.716 11.8752 19.3451 11.8752 18.9583C11.8752 18.5715 11.7215 18.2006 11.448 17.9271C11.1745 17.6536 10.8036 17.5 10.4168 17.5C10.0301 17.5 9.65912 17.6536 9.38563 17.9271C9.11214 18.2006 8.9585 18.5715 8.9585 18.9583C8.9585 19.3451 9.11214 19.716 9.38563 19.9895C9.65912 20.263 10.0301 20.4167 10.4168 20.4167ZM15.9585 14.875C15.9585 15.2618 15.8049 15.6327 15.5314 15.9062C15.2579 16.1797 14.8869 16.3333 14.5002 16.3333C14.1134 16.3333 13.7425 16.1797 13.469 15.9062C13.1955 15.6327 13.0418 15.2618 13.0418 14.875C13.0418 14.4882 13.1955 14.1173 13.469 13.8438C13.7425 13.5703 14.1134 13.4167 14.5002 13.4167C14.8869 13.4167 15.2579 13.5703 15.5314 13.8438C15.8049 14.1173 15.9585 14.4882 15.9585 14.875ZM14.5002 20.4167C14.8869 20.4167 15.2579 20.263 15.5314 19.9895C15.8049 19.716 15.9585 19.3451 15.9585 18.9583C15.9585 18.5715 15.8049 18.2006 15.5314 17.9271C15.2579 17.6536 14.8869 17.5 14.5002 17.5C14.1134 17.5 13.7425 17.6536 13.469 17.9271C13.1955 18.2006 13.0418 18.5715 13.0418 18.9583C13.0418 19.3451 13.1955 19.716 13.469 19.9895C13.7425 20.263 14.1134 20.4167 14.5002 20.4167ZM20.0418 14.875C20.0418 15.2618 19.8882 15.6327 19.6147 15.9062C19.3412 16.1797 18.9703 16.3333 18.5835 16.3333C18.1967 16.3333 17.8258 16.1797 17.5523 15.9062C17.2788 15.6327 17.1252 15.2618 17.1252 14.875C17.1252 14.4882 17.2788 14.1173 17.5523 13.8438C17.8258 13.5703 18.1967 13.4167 18.5835 13.4167C18.9703 13.4167 19.3412 13.5703 19.6147 13.8438C19.8882 14.1173 20.0418 14.4882 20.0418 14.875Z" fill="#4D4D4D"/>
<path fill-rule="evenodd" clip-rule="evenodd" d="M9.8335 3.79166C10.0656 3.79166 10.2881 3.88384 10.4522 4.04794C10.6163 4.21203 10.7085 4.43459 10.7085 4.66666V5.54166H18.2918V4.66666C18.2918 4.43459 18.384 4.21203 18.5481 4.04794C18.7122 3.88384 18.9348 3.79166 19.1668 3.79166C19.3989 3.79166 19.6215 3.88384 19.7855 4.04794C19.9496 4.21203 20.0418 4.43459 20.0418 4.66666V5.55099C20.2192 5.55566 20.3844 5.56421 20.5377 5.57666C20.981 5.61166 21.3963 5.69099 21.7895 5.89166C22.3933 6.19927 22.8842 6.69018 23.1918 7.29399C23.3925 7.68716 23.4718 8.10249 23.5068 8.54582C23.5418 8.97166 23.5418 9.49082 23.5418 10.115V19.0517C23.5418 19.6758 23.5418 20.195 23.5068 20.6208C23.4718 21.0642 23.3925 21.4795 23.1918 21.8727C22.8845 22.4763 22.394 22.9672 21.7907 23.275C21.3963 23.4757 20.981 23.555 20.5377 23.59C20.1118 23.625 19.5927 23.625 18.9697 23.625H10.0318C9.40766 23.625 8.8885 23.625 8.46266 23.59C8.01933 23.555 7.604 23.4757 7.21083 23.275C6.60737 22.968 6.11651 22.4779 5.8085 21.875C5.60783 21.4807 5.5285 21.0653 5.4935 20.622C5.4585 20.1962 5.4585 19.677 5.4585 19.054V10.115C5.4585 9.49082 5.4585 8.97166 5.4935 8.54582C5.5285 8.10249 5.60783 7.68716 5.8085 7.29399C6.11611 6.69018 6.60702 6.19927 7.21083 5.89166C7.604 5.69099 8.01933 5.61166 8.46266 5.57666C8.61588 5.56421 8.78116 5.55566 8.9585 5.55099V4.66666C8.9585 4.55175 8.98113 4.43797 9.0251 4.33181C9.06907 4.22565 9.13353 4.12919 9.21478 4.04794C9.29603 3.96669 9.39249 3.90223 9.49865 3.85826C9.60481 3.81429 9.71859 3.79166 9.8335 3.79166ZM21.7918 11.9583H7.2085V19.0167C7.2085 19.684 7.2085 20.1332 7.23766 20.4773C7.2645 20.8133 7.3135 20.9732 7.36716 21.0782C7.50716 21.3535 7.73 21.5763 8.00533 21.7163C8.11033 21.77 8.27016 21.819 8.605 21.8458C8.95033 21.8738 9.39833 21.875 10.0668 21.875H18.9335C19.6008 21.875 20.05 21.875 20.3942 21.8458C20.7302 21.819 20.89 21.77 20.995 21.7163C21.2698 21.5764 21.4933 21.353 21.6332 21.0782C21.6868 20.9732 21.7358 20.8133 21.7627 20.4773C21.7907 20.1332 21.7918 19.684 21.7918 19.0167V11.9583ZM12.7502 8.16666C12.5181 8.16666 12.2955 8.25884 12.1314 8.42294C11.9674 8.58703 11.8752 8.80959 11.8752 9.04166C11.8752 9.27372 11.9674 9.49628 12.1314 9.66037C12.2955 9.82447 12.5181 9.91666 12.7502 9.91666H16.2502C16.4822 9.91666 16.7048 9.82447 16.8689 9.66037C17.033 9.49628 17.1252 9.27372 17.1252 9.04166C17.1252 8.80959 17.033 8.58703 16.8689 8.42294C16.7048 8.25884 16.4822 8.16666 16.2502 8.16666H12.7502Z" fill="#4D4D4D"/>
</svg>
