<svg width="3" height="12" viewBox="0 0 3 12" fill="none" xmlns="http://www.w3.org/2000/svg">
<path d="M0.16683 1.33333C0.166829 2.06971 0.763783 2.66667 1.50016 2.66667C2.23654 2.66667 2.8335 2.06971 2.8335 1.33333C2.8335 0.596954 2.23654 -2.60937e-08 1.50016 -5.82819e-08C0.763783 -9.047e-08 0.16683 0.596954 0.16683 1.33333Z" fill="#8E8E8E"/>
<path d="M1.50016 7.33333C0.763783 7.33333 0.166829 6.73638 0.166829 6C0.166829 5.26362 0.763783 4.66667 1.50016 4.66667C2.23654 4.66667 2.8335 5.26362 2.8335 6C2.8335 6.73638 2.23654 7.33333 1.50016 7.33333Z" fill="#8E8E8E"/>
<path d="M1.50016 12C0.763783 12 0.166829 11.403 0.166829 10.6667C0.166829 9.93029 0.763783 9.33333 1.50016 9.33333C2.23654 9.33333 2.8335 9.93029 2.8335 10.6667C2.8335 11.403 2.23654 12 1.50016 12Z" fill="#8E8E8E"/>
</svg>
