<svg width="19" height="24" viewBox="0 0 19 24" fill="none" xmlns="http://www.w3.org/2000/svg">
<path fill-rule="evenodd" clip-rule="evenodd" d="M3.8887 0.5H11.5861L18.1 7.29927V20.5033C18.1 22.1569 16.7654 23.5 15.1117 23.5H3.8887C2.24345 23.5 0.900391 22.1569 0.900391 20.5033V3.48831C0.900362 1.84306 2.24345 0.5 3.8887 0.5Z" fill="#00733B"/>
<path opacity="0.302" fill-rule="evenodd" clip-rule="evenodd" d="M11.5781 0.5V7.24051H18.1004L11.5781 0.5Z" fill="white"/>
<path d="M8.05217 17.2464H6.93575L6.1719 15.9621L5.40802 17.2464H4.2832L5.60949 15.0135L4.44272 13.0744H5.5675L6.17187 14.0817L6.76784 13.0744H7.89266L6.73425 15.0219L8.05217 17.2464ZM8.44669 17.2464V13.0744H9.51275V16.3398H11.3259V17.2463H8.44669V17.2464ZM13.0887 17.2967C12.6689 17.2967 12.2996 17.1624 11.9806 16.9022C11.67 16.6504 11.4938 16.3314 11.4686 15.9537L12.3836 15.6851C12.4088 15.8865 12.4927 16.0628 12.6354 16.1971C12.7865 16.3314 12.9544 16.3986 13.1391 16.3986C13.2901 16.3986 13.4161 16.365 13.5168 16.2978C13.6091 16.2307 13.6595 16.1384 13.6595 16.0292C13.6595 15.9369 13.6175 15.8613 13.5419 15.7942C13.4664 15.7354 13.3657 15.6851 13.2481 15.6431C13.1306 15.6011 12.9879 15.5591 12.8452 15.5256C12.6941 15.4836 12.543 15.4333 12.4003 15.3661C12.2492 15.3073 12.1149 15.2318 11.9974 15.1395C11.8715 15.0555 11.7792 14.9296 11.7036 14.7701C11.6281 14.619 11.5861 14.4343 11.5861 14.2245C11.5861 13.8803 11.7288 13.5949 12.0226 13.3683C12.3164 13.1332 12.6689 13.0241 13.0802 13.0241C13.4916 13.0241 13.8525 13.1248 14.1547 13.3179C14.4569 13.5194 14.6499 13.7796 14.7255 14.0986L13.7686 14.5015C13.7266 14.3252 13.6426 14.1825 13.5251 14.0734C13.4076 13.9727 13.2565 13.9139 13.0802 13.9139C12.9459 13.9139 12.8452 13.9475 12.7613 13.9979C12.6857 14.0482 12.6521 14.1238 12.6521 14.2161C12.6521 14.3001 12.7025 14.3756 12.8032 14.4344C12.904 14.4847 13.0383 14.5267 13.1894 14.5519C13.3404 14.5771 13.5083 14.619 13.6846 14.6778C13.8693 14.745 14.0288 14.8121 14.1882 14.9044C14.3393 14.9884 14.4653 15.1311 14.566 15.3158C14.6751 15.5088 14.7255 15.7355 14.7255 15.9957C14.7255 16.3818 14.5744 16.7008 14.2722 16.9358C13.97 17.1708 13.5755 17.2967 13.0887 17.2967Z" fill="white"/>
</svg>
