<svg width="18" height="18" viewBox="0 0 18 18" fill="none" xmlns="http://www.w3.org/2000/svg">
<path d="M5.25 8.25H6.75V9.75H5.25V8.25Z" fill="#8E8E8E"/>
<path d="M12.75 8.25H7.5V9.75H12.75V8.25Z" fill="#8E8E8E"/>
<path d="M5.25 11.25H6.75V12.75H5.25V11.25Z" fill="#8E8E8E"/>
<path d="M12.75 11.25H7.5V12.75H12.75V11.25Z" fill="#8E8E8E"/>
<path d="M5.25 1.5V3H3.75C2.92157 3 2.25 3.67157 2.25 4.5V15C2.25 15.8284 2.92157 16.5 3.75 16.5H14.25C15.0784 16.5 15.75 15.8284 15.75 15V4.5C15.75 3.67157 15.0784 3 14.25 3H12.75V1.5H5.25ZM11.25 3V4.5H6.75V3H11.25ZM3.75 4.5H5.25V6H12.75V4.5H14.25V15H3.75V4.5Z" fill="#8E8E8E"/>
</svg>
