<svg width="30" height="30" viewBox="0 0 30 30" fill="none" xmlns="http://www.w3.org/2000/svg">
<path d="M9.5625 22.25V24.6666M20.4375 22.25V24.6666M6.3 12.3948C5.2125 12.419 4.125 12.9108 4.125 13.7916V18.625C4.125 20.6272 5.58587 22.25 7.3875 22.25H22.6125C24.4141 22.25 25.875 20.6272 25.875 18.625V13.7916C25.875 12.8105 24.7875 12.3706 23.7 12.3948M6.3 12.3948C7.3875 12.3706 8.475 12.8105 8.475 13.7916C8.475 15.4386 8.74688 17.4166 10.8917 17.4166H19.1083C21.2531 17.4166 21.525 15.4386 21.525 13.7916C21.525 12.9096 22.6125 12.4202 23.7 12.3948M6.3 12.3948V8.95831C6.3 6.9561 7.76088 5.33331 9.5625 5.33331H20.4375C22.2391 5.33331 23.7 6.9561 23.7 8.95831V12.3948" stroke="white" stroke-width="2" stroke-linecap="round" stroke-linejoin="round"/>
</svg>
