<svg width="19" height="20" viewBox="0 0 19 20" fill="none" xmlns="http://www.w3.org/2000/svg">
<path d="M17.375 6.66667C17.3747 6.37439 17.2937 6.08734 17.1401 5.8343C16.9865 5.58126 16.7658 5.37114 16.5 5.225L10.375 1.89167C10.109 1.74539 9.80719 1.66838 9.5 1.66838C9.19281 1.66838 8.89103 1.74539 8.625 1.89167L2.5 5.225C2.23423 5.37114 2.01348 5.58126 1.8599 5.8343C1.70632 6.08734 1.62531 6.37439 1.625 6.66667V13.3333C1.62531 13.6256 1.70632 13.9127 1.8599 14.1657C2.01348 14.4187 2.23423 14.6289 2.5 14.775L8.625 18.1083C8.89103 18.2546 9.19281 18.3316 9.5 18.3316C9.80719 18.3316 10.109 18.2546 10.375 18.1083L16.5 14.775C16.7658 14.6289 16.9865 14.4187 17.1401 14.1657C17.2937 13.9127 17.3747 13.6256 17.375 13.3333V6.66667Z" stroke="#8E8E8E" stroke-width="2" stroke-linecap="round" stroke-linejoin="round"/>
<path d="M1.88745 5.83333L9.49995 10M9.49995 10L17.1125 5.83333M9.49995 10V18.3333" stroke="#8E8E8E" stroke-width="2" stroke-linecap="round" stroke-linejoin="round"/>
</svg>
