<svg width="21" height="20" viewBox="0 0 21 20" fill="none" xmlns="http://www.w3.org/2000/svg">
<path d="M10.5 0C4.977 0 0.5 4.477 0.5 10C0.5 15.523 4.977 20 10.5 20C16.023 20 20.5 15.523 20.5 10C20.5 4.477 16.023 0 10.5 0ZM11.5 16H9.5V14H11.5V16ZM11.5 11.859V13H9.5V11C9.5 10.7348 9.60536 10.4804 9.79289 10.2929C9.98043 10.1054 10.2348 10 10.5 10C11.603 10 12.5 9.103 12.5 8C12.5 6.897 11.603 6 10.5 6C9.397 6 8.5 6.897 8.5 8H6.5C6.5 6.93913 6.92143 5.92172 7.67157 5.17157C8.42172 4.42143 9.43913 4 10.5 4C11.5609 4 12.5783 4.42143 13.3284 5.17157C14.0786 5.92172 14.5 6.93913 14.5 8C14.4986 8.88482 14.2032 9.74409 13.6601 10.4427C13.117 11.1412 12.3572 11.6395 11.5 11.859Z" fill="#1794FA"/>
</svg>
