<svg width="17" height="20" viewBox="0 0 17 20" fill="none" xmlns="http://www.w3.org/2000/svg">
<path d="M8.5 0C4.1 0 0.5 3.6 0.5 8C0.5 13.4 7.5 19.5 7.8 19.8C8 19.9 8.3 20 8.5 20C8.7 20 9 19.9 9.2 19.8C9.5 19.5 16.5 13.4 16.5 8C16.5 3.6 12.9 0 8.5 0ZM8.5 17.7C6.4 15.7 2.5 11.4 2.5 8C2.5 4.7 5.2 2 8.5 2C11.8 2 14.5 4.7 14.5 8C14.5 11.3 10.6 15.7 8.5 17.7ZM8.5 4C6.3 4 4.5 5.8 4.5 8C4.5 10.2 6.3 12 8.5 12C10.7 12 12.5 10.2 12.5 8C12.5 5.8 10.7 4 8.5 4ZM8.5 10C7.4 10 6.5 9.1 6.5 8C6.5 6.9 7.4 6 8.5 6C9.6 6 10.5 6.9 10.5 8C10.5 9.1 9.6 10 8.5 10Z" fill="#4D4D4D"/>
</svg>
