<svg width="29" height="28" viewBox="0 0 29 28" fill="none" xmlns="http://www.w3.org/2000/svg">
<path d="M12.6425 1.49031C13.1861 -0.022542 15.3256 -0.0225458 15.8692 1.49031L18.1887 7.94607C18.4267 8.6086 19.0456 9.05825 19.7492 9.0799L26.6058 9.29092C28.2126 9.34037 28.8737 11.3752 27.6029 12.3596L22.1798 16.5605C21.6233 16.9916 21.3869 17.7192 21.5838 18.3951L23.5019 24.9813C23.9513 26.5247 22.2204 27.7823 20.8915 26.8779L15.2204 23.0184C14.6384 22.6223 13.8734 22.6223 13.2914 23.0184L7.62026 26.8779C6.29129 27.7823 4.56037 26.5247 5.00986 24.9813L6.92797 18.3951C7.12481 17.7192 6.88842 16.9916 6.33188 16.5605L0.908839 12.3596C-0.362004 11.3752 0.299146 9.34037 1.90592 9.29092L8.76248 9.0799C9.46614 9.05825 10.085 8.6086 10.3231 7.94608L12.6425 1.49031Z" fill="#D9D9D9"/>
</svg>
