<svg width="23" height="28" viewBox="0 0 23 28" fill="none" xmlns="http://www.w3.org/2000/svg">
<path fill-rule="evenodd" clip-rule="evenodd" d="M2.70835 8.92871C2.70835 6.60807 3.63022 4.38247 5.27116 2.74153C6.91211 1.10058 9.1377 0.178711 11.4583 0.178711C13.779 0.178711 16.0046 1.10058 17.6455 2.74153C19.2865 4.38247 20.2083 6.60807 20.2083 8.92871V13.6337L22.4858 18.1887C22.5907 18.3984 22.6402 18.6313 22.6297 18.8655C22.6191 19.0997 22.5489 19.3272 22.4257 19.5266C22.3024 19.726 22.1303 19.8906 21.9255 20.0047C21.7208 20.1189 21.4902 20.1787 21.2558 20.1787H16.3008C16.0228 21.2515 15.3964 22.2016 14.5199 22.8799C13.6435 23.5581 12.5666 23.9261 11.4583 23.9261C10.3501 23.9261 9.27323 23.5581 8.39677 22.8799C7.52031 22.2016 6.89389 21.2515 6.61585 20.1787H1.66085C1.42645 20.1787 1.19592 20.1189 0.991182 20.0047C0.786438 19.8906 0.61427 19.726 0.491029 19.5266C0.367788 19.3272 0.297567 19.0997 0.287034 18.8655C0.276501 18.6313 0.326006 18.3984 0.430848 18.1887L2.70835 13.6337V8.92871ZM9.29335 20.1787C9.51278 20.5587 9.82837 20.8743 10.2084 21.0937C10.5884 21.3131 11.0195 21.4286 11.4583 21.4286C11.8972 21.4286 12.3283 21.3131 12.7083 21.0937C13.0883 20.8743 13.4039 20.5587 13.6233 20.1787H9.29335ZM11.4583 2.67871C9.80074 2.67871 8.21103 3.33719 7.03893 4.50929C5.86683 5.6814 5.20835 7.27111 5.20835 8.92871V13.6337C5.20832 14.0216 5.11802 14.4042 4.9446 14.7512L3.4821 17.6787H19.4358L17.9733 14.7512C17.7995 14.4043 17.7088 14.0217 17.7083 13.6337V8.92871C17.7083 7.27111 17.0499 5.6814 15.8778 4.50929C14.7057 3.33719 13.1159 2.67871 11.4583 2.67871Z" fill="#8E8E8E"/>
</svg>
