<svg width="93" height="87" viewBox="0 0 93 87" fill="none" xmlns="http://www.w3.org/2000/svg">
<rect x="0.5" y="0.5" width="92" height="86" rx="9.5" stroke="#E2E8F0"/>
<path d="M31.9165 28.625C31.9165 27.4978 32.3555 26.4168 33.1369 25.6198C33.9183 24.8228 34.9781 24.375 36.0832 24.375H45.979C46.1171 24.375 46.2496 24.431 46.3473 24.5306C46.445 24.6302 46.4998 24.7654 46.4998 24.9062V35C46.4998 36.1272 46.9388 37.2082 47.7202 38.0052C48.5016 38.8022 49.5614 39.25 50.6665 39.25H60.5623C60.7005 39.25 60.8329 39.306 60.9306 39.4056C61.0283 39.5052 61.0832 39.6404 61.0832 39.7812V58.375C61.0832 59.5022 60.6442 60.5832 59.8628 61.3802C59.0814 62.1772 58.0216 62.625 56.9165 62.625H36.0832C34.9781 62.625 33.9183 62.1772 33.1369 61.3802C32.3555 60.5832 31.9165 59.5022 31.9165 58.375V28.625Z" fill="black" fill-opacity="0.25"/>
<path d="M48.5835 34.9997V25.6582C48.5833 25.553 48.6138 25.4501 48.671 25.3625C48.7282 25.275 48.8096 25.2068 48.9049 25.1665C49.0002 25.1262 49.105 25.1157 49.2062 25.1362C49.3074 25.1568 49.4002 25.2076 49.4731 25.2821L60.1939 36.2173C60.2669 36.2916 60.3167 36.3863 60.3369 36.4895C60.357 36.5927 60.3467 36.6997 60.3072 36.7969C60.2677 36.894 60.2008 36.9771 60.115 37.0354C60.0292 37.0938 59.9283 37.1249 59.8252 37.1247H50.6668C50.1143 37.1247 49.5844 36.9008 49.1937 36.5023C48.803 36.1038 48.5835 35.5633 48.5835 34.9997Z" fill="#18B4BF"/>
<path d="M36.576 56.5V47.7727H39.6868C40.3658 47.7727 40.9283 47.8963 41.3743 48.1435C41.8203 48.3906 42.1541 48.7287 42.3757 49.1577C42.5973 49.5838 42.7081 50.0639 42.7081 50.598C42.7081 51.1349 42.5959 51.6179 42.3714 52.0469C42.1499 52.473 41.8146 52.8111 41.3658 53.0611C40.9197 53.3082 40.3587 53.4318 39.6825 53.4318H37.5433V52.3153H39.5632C39.9922 52.3153 40.3402 52.2415 40.6072 52.0938C40.8743 51.9432 41.0703 51.7386 41.1953 51.4801C41.3203 51.2216 41.3828 50.9276 41.3828 50.598C41.3828 50.2685 41.3203 49.9759 41.1953 49.7202C41.0703 49.4645 40.8729 49.2642 40.603 49.1193C40.3359 48.9744 39.9837 48.902 39.5462 48.902H37.8928V56.5H36.576ZM47.0771 56.5H44.2518V47.7727H47.1665C48.0217 47.7727 48.756 47.9474 49.3697 48.2969C49.9833 48.6435 50.4535 49.142 50.7802 49.7926C51.1097 50.4403 51.2745 51.2173 51.2745 52.1236C51.2745 53.0327 51.1083 53.8139 50.7759 54.4673C50.4464 55.1207 49.9691 55.6236 49.3441 55.9759C48.7191 56.3253 47.9634 56.5 47.0771 56.5ZM45.5685 55.3494H47.0046C47.6694 55.3494 48.2219 55.2244 48.6623 54.9744C49.1026 54.7216 49.4322 54.3565 49.6509 53.8793C49.8697 53.3991 49.979 52.8139 49.979 52.1236C49.979 51.4389 49.8697 50.858 49.6509 50.3807C49.435 49.9034 49.1126 49.5412 48.6836 49.294C48.2546 49.0469 47.7219 48.9233 47.0856 48.9233H45.5685V55.3494ZM55.9247 49.9545V50.9773H52.2259V49.9545H55.9247ZM53.2401 56.5V49.196C53.2401 48.7869 53.3295 48.4474 53.5085 48.1776C53.6875 47.9048 53.9247 47.7017 54.2202 47.5682C54.5156 47.4318 54.8366 47.3636 55.1832 47.3636C55.4389 47.3636 55.6577 47.3849 55.8395 47.4276C56.0213 47.4673 56.1562 47.5043 56.2443 47.5384L55.946 48.5696C55.8864 48.5526 55.8097 48.5327 55.7159 48.5099C55.6222 48.4844 55.5085 48.4716 55.375 48.4716C55.0653 48.4716 54.8438 48.5483 54.7102 48.7017C54.5795 48.8551 54.5142 49.0767 54.5142 49.3665V56.5H53.2401Z" fill="#4D4D4D"/>
<rect x="70.5" y="5" width="17" height="17" rx="4.5" stroke="#E2E8F0"/>
<path d="M79.3318 18.5V10.73L77.0218 12.214L76.4618 11.22L79.4438 9.26H80.6618V18.5H79.3318Z" fill="#494949"/>
</svg>
