<svg width="29" height="28" viewBox="0 0 29 28" fill="none" xmlns="http://www.w3.org/2000/svg">
<path d="M12.5576 1.49031C13.1011 -0.022542 15.2407 -0.0225458 15.7842 1.49031L18.1037 7.94607C18.3417 8.6086 18.9606 9.05825 19.6643 9.0799L26.5208 9.29092C28.1276 9.34037 28.7888 11.3752 27.5179 12.3596L22.0949 16.5605C21.5383 16.9916 21.3019 17.7192 21.4988 18.3951L23.4169 24.9813C23.8664 26.5247 22.1355 27.7823 20.8065 26.8779L15.1354 23.0184C14.5534 22.6223 13.7884 22.6223 13.2064 23.0184L7.5353 26.8779C6.20633 27.7823 4.47541 26.5247 4.9249 24.9813L6.84301 18.3951C7.03985 17.7192 6.80346 16.9916 6.24692 16.5605L0.823878 12.3596C-0.446965 11.3752 0.214185 9.34037 1.82096 9.29092L8.67752 9.0799C9.38118 9.05825 10.0001 8.6086 10.2381 7.94608L12.5576 1.49031Z" fill="#FAE337"/>
</svg>
