<svg width="18" height="18" viewBox="0 0 18 18" fill="none" xmlns="http://www.w3.org/2000/svg">
<g clip-path="url(#clip0_1771_1502)">
<path d="M9 2.25C12.7279 2.25 15.75 5.27208 15.75 9C15.75 12.7279 12.7279 15.75 9 15.75C5.27208 15.75 2.25 12.7279 2.25 9H0.75C0.75 13.5563 4.44365 17.25 9 17.25C13.5563 17.25 17.25 13.5563 17.25 9C17.25 4.44365 13.5563 0.75 9 0.75C6.79048 0.75 4.78249 1.61958 3.30218 3.03363L2.25 3.98153V1.5H0.75V6.75H6V5.25H3.08303L4.32305 4.13287L4.33134 4.12493C5.54445 2.96284 7.18819 2.25 9 2.25Z" fill="#8E8E8E"/>
<path d="M8.25 3.75V9.75H12.75V8.25H9.75V3.75H8.25Z" fill="#8E8E8E"/>
</g>
<defs>
<clipPath id="clip0_1771_1502">
<rect width="18" height="18" fill="white"/>
</clipPath>
</defs>
</svg>
