<svg width="21" height="24" viewBox="0 0 21 24" fill="none" xmlns="http://www.w3.org/2000/svg">
<g clip-path="url(#clip0_2375_7153)">
<path d="M12.293 3.45759C13.1792 2.44712 13.7237 1.99347 14.7933 1.41992V18.2461L12.293 18.7709V3.45759Z" fill="#202224"/>
<path d="M20.2821 11.9175C20.8004 10.806 20.8614 10.3121 21.0002 9.17188L1.83511 13.3995C1.38064 14.4279 1.23434 15.0027 1.16431 16.0237L20.2821 11.9175Z" fill="#202224"/>
<path d="M20.2819 17.0712C20.8002 15.9597 20.8613 15.4657 21 14.3254L12.3848 16.178C12.3238 17.1968 12.3938 17.7194 12.3238 18.7404L20.2819 17.0712Z" fill="#202224"/>
<path d="M20.2819 22.2241C20.8002 21.1128 20.8613 20.6188 21 19.4785L13.147 21.2104C12.7507 21.7661 12.5067 22.6922 12.3238 23.8934L20.2819 22.2241Z" fill="#202224"/>
<path d="M7.81104 20.4694C8.5733 19.5123 9.36606 18.3083 9.9149 17.3203L0.670684 19.3558C0.216207 20.3843 0.0699153 20.9591 -0.00012207 21.98L7.81104 20.4694Z" fill="#202224"/>
<path d="M7.41473 2.03767C8.30084 1.0272 8.8454 0.573544 9.91498 0V17.3819L7.41473 17.9068V2.03767Z" fill="#202224"/>
</g>
<defs>
<clipPath id="clip0_2375_7153">
<rect width="21" height="24" fill="white"/>
</clipPath>
</defs>
</svg>
