<svg width="22" height="22" viewBox="0 0 22 22" fill="none" xmlns="http://www.w3.org/2000/svg">
<path d="M16.874 15.46L21.157 19.742L19.742 21.157L15.46 16.874C13.8668 18.1512 11.885 18.8459 9.84302 18.843C4.87502 18.843 0.843018 14.811 0.843018 9.843C0.843018 4.875 4.87502 0.843 9.84302 0.843C14.811 0.843 18.843 4.875 18.843 9.843C18.8459 11.885 18.1512 13.8667 16.874 15.46ZM14.868 14.718C16.1369 13.4127 16.8456 11.6634 16.843 9.843C16.843 5.976 13.71 2.843 9.84302 2.843C5.97602 2.843 2.84302 5.976 2.84302 9.843C2.84302 13.71 5.97602 16.843 9.84302 16.843C11.6634 16.8455 13.4127 16.1368 14.718 14.868L14.868 14.718Z" fill="white"/>
</svg>
