<svg width="21" height="21" viewBox="0 0 21 21" fill="none" xmlns="http://www.w3.org/2000/svg">
<path d="M8.82463 2.81731C9.25103 1.0609 11.749 1.0609 12.1754 2.81731C12.4508 3.95193 13.7507 4.49038 14.7478 3.88285C16.2913 2.94239 18.0576 4.7087 17.1172 6.25218C16.5096 7.24925 17.0481 8.54918 18.1827 8.82463C19.9391 9.25103 19.9391 11.749 18.1827 12.1754C17.0481 12.4508 16.5096 13.7507 17.1172 14.7478C18.0576 16.2913 16.2913 18.0576 14.7478 17.1172C13.7507 16.5096 12.4508 17.0481 12.1754 18.1827C11.749 19.9391 9.25103 19.9391 8.82463 18.1827C8.54918 17.0481 7.24926 16.5096 6.25219 17.1172C4.7087 18.0576 2.94239 16.2913 3.88285 14.7478C4.49038 13.7507 3.95193 12.4508 2.81731 12.1754C1.0609 11.749 1.0609 9.25103 2.81731 8.82463C3.95193 8.54918 4.49037 7.24926 3.88285 6.25218C2.94239 4.7087 4.7087 2.94239 6.25219 3.88285C7.24926 4.49037 8.54918 3.95193 8.82463 2.81731Z" stroke="#64748B" stroke-width="1.5" stroke-linecap="round" stroke-linejoin="round"/>
<path d="M13.5 10.5C13.5 12.1569 12.1569 13.5 10.5 13.5C8.84315 13.5 7.5 12.1569 7.5 10.5C7.5 8.84315 8.84315 7.5 10.5 7.5C12.1569 7.5 13.5 8.84315 13.5 10.5Z" stroke="#64748B" stroke-width="1.5" stroke-linecap="round" stroke-linejoin="round"/>
</svg>
