<svg width="39" height="39" viewBox="0 0 39 39" fill="none" xmlns="http://www.w3.org/2000/svg">
<path fill-rule="evenodd" clip-rule="evenodd" d="M19.5001 38.625C22.9551 38.6253 26.3456 37.6897 29.3115 35.9175C32.2773 34.1454 34.7077 31.6029 36.3445 28.5602C37.9812 25.5175 38.7632 22.0882 38.6072 18.6368C38.4513 15.1853 37.3633 11.8406 35.4588 8.95788L20.2544 25.8516C19.5443 26.6409 18.5644 27.1357 17.5076 27.2388C16.4509 27.3418 15.3939 27.0456 14.5446 26.4084L7.60007 21.2C7.1492 20.8618 6.85113 20.3584 6.77143 19.8005C6.69173 19.2426 6.83692 18.6759 7.17507 18.225C7.51322 17.7741 8.01663 17.4761 8.57455 17.3964C9.13247 17.3167 9.6992 17.4618 10.1501 17.8L17.0946 23.0084L32.7048 5.66625C30.4434 3.50748 27.6872 1.93603 24.6776 1.08947C21.6681 0.242918 18.4968 0.147081 15.4416 0.810354C12.3864 1.47363 9.54035 2.87578 7.1527 4.89405C4.76505 6.91232 2.90859 9.48516 1.74586 12.3873C0.583138 15.2894 0.149609 18.4323 0.483234 21.5409C0.816858 24.6494 1.90746 27.6288 3.65956 30.2181C5.41165 32.8074 7.7718 34.9276 10.5334 36.3933C13.2949 37.8589 16.3737 38.6252 19.5001 38.625Z" fill="#109147"/>
</svg>
