<svg width="32" height="32" viewBox="0 0 32 32" fill="none" xmlns="http://www.w3.org/2000/svg">
<path d="M29.7141 25.1426H2.2857C1.02342 25.1426 0 24.1192 0 22.8569V4.57135H31.9997V22.8569C31.9997 24.1192 30.9763 25.1426 29.7141 25.1426Z" fill="#F0F0F0"/>
<path d="M26.4068 24.2198C27.4068 22.8838 27.9994 21.2255 27.9994 19.4284C27.9994 15.0102 24.4177 11.4285 19.9994 11.4285C15.5812 11.4285 11.9995 15.0102 11.9995 19.4284C11.9995 21.6667 12.9189 23.6907 14.4006 25.1426H27.3297L26.4068 24.2198Z" fill="#D2D2D2"/>
<path d="M28.5708 9.14281H17.1424C16.5109 9.14281 15.9995 8.63139 15.9995 7.99996C15.9995 7.36854 16.5109 6.85712 17.1424 6.85712H28.5708C29.2023 6.85712 29.7137 7.36854 29.7137 7.99996C29.7137 8.63139 29.2023 9.14281 28.5708 9.14281Z" fill="#D2D2D2"/>
<path d="M28.5708 13.7142H17.1424C16.5109 13.7142 15.9995 13.2027 15.9995 12.5713C15.9995 11.9399 16.5109 11.4285 17.1424 11.4285H28.5708C29.2023 11.4285 29.7137 11.9399 29.7137 12.5713C29.7137 13.2027 29.2023 13.7142 28.5708 13.7142Z" fill="#D2D2D2"/>
<path d="M28.5708 18.2856H17.1424C16.5109 18.2856 15.9995 17.7742 15.9995 17.1428C15.9995 16.5114 16.5109 15.9999 17.1424 15.9999H28.5708C29.2023 15.9999 29.7137 16.5114 29.7137 17.1428C29.7137 17.7742 29.2023 18.2856 28.5708 18.2856Z" fill="#D2D2D2"/>
<path d="M14.8565 22.8569H3.428C2.79658 22.8569 2.28516 22.3455 2.28516 21.7141C2.28516 21.0827 2.79658 20.5712 3.428 20.5712H14.8565C15.4879 20.5712 15.9993 21.0827 15.9993 21.7141C15.9993 22.3455 15.4879 22.8569 14.8565 22.8569Z" fill="#D2D2D2"/>
<path d="M12.5708 18.2856H3.428C2.79658 18.2856 2.28516 17.7742 2.28516 17.1428V7.99996C2.28516 7.36854 2.79658 6.85712 3.428 6.85712H12.5708C13.2022 6.85712 13.7136 7.36854 13.7136 7.99996V17.1428C13.7136 17.7742 13.2022 18.2856 12.5708 18.2856Z" fill="#00A0C8"/>
<path d="M8.84025 7.87286H7.19552C6.28721 7.87286 5.55078 8.49666 5.55078 9.26605V11.0075C5.55078 11.1998 5.73499 11.3558 5.96196 11.3558H10.0738C10.3008 11.3558 10.485 11.1998 10.485 11.0075V9.26605C10.485 8.49666 9.74855 7.87286 8.84025 7.87286Z" fill="#0A5078"/>
<path d="M3.42822 18.2855V17.1427C3.42822 15.8804 4.45164 14.857 5.71392 14.857H10.2853C11.5476 14.857 12.571 15.8804 12.571 17.1427V18.2855H3.42822Z" fill="#C80A50"/>
<path d="M9.1429 14.857V13.1428H6.8572V14.857H5.71436C5.71436 16.1193 6.73778 17.1427 8.00005 17.1427C9.26233 17.1427 10.2857 16.1193 10.2857 14.857H9.1429Z" fill="#D2AA82"/>
<path d="M8.57148 13.7142H7.42863C6.48178 13.7142 5.71436 12.9467 5.71436 11.9999V10.2856C5.71436 9.65419 6.22578 9.14276 6.8572 9.14276H7.42863C7.42863 9.77418 7.94005 10.2856 8.57148 10.2856H10.2857V11.9999C10.2857 12.9467 9.51833 13.7142 8.57148 13.7142Z" fill="#F0C8A0"/>
<path d="M31.9997 4.57139H0V2.2857C0 1.02342 1.02342 0 2.2857 0H29.7141C30.9763 0 31.9997 1.02342 31.9997 2.2857V4.57139Z" fill="#0A5078"/>
<path d="M3.428 3.42858C4.05918 3.42858 4.57085 2.91691 4.57085 2.28573C4.57085 1.65455 4.05918 1.14288 3.428 1.14288C2.79683 1.14288 2.28516 1.65455 2.28516 2.28573C2.28516 2.91691 2.79683 3.42858 3.428 3.42858Z" fill="#FAB400"/>
<path d="M7.99978 3.42858C8.63096 3.42858 9.14263 2.91691 9.14263 2.28573C9.14263 1.65455 8.63096 1.14288 7.99978 1.14288C7.3686 1.14288 6.85693 1.65455 6.85693 2.28573C6.85693 2.91691 7.3686 3.42858 7.99978 3.42858Z" fill="#C80A50"/>
<path d="M12.5711 3.42858C13.2022 3.42858 13.7139 2.91691 13.7139 2.28573C13.7139 1.65455 13.2022 1.14288 12.5711 1.14288C11.9399 1.14288 11.4282 1.65455 11.4282 2.28573C11.4282 2.91691 11.9399 3.42858 12.5711 3.42858Z" fill="#00A0C8"/>
<path d="M27.4281 19.4284C27.4281 15.0102 23.8464 11.4285 19.4282 11.4285C15.0099 11.4285 11.4282 15.0102 11.4282 19.4284C11.4282 23.8467 15.0099 27.4283 19.4282 27.4283C21.2253 27.4283 22.8836 26.8358 24.219 25.8358L25.4767 27.0935L27.0927 25.4775L25.835 24.2198C26.8355 22.8838 27.4281 21.2255 27.4281 19.4284Z" fill="#0A5078"/>
<path d="M19.4276 25.1427C22.5835 25.1427 25.1419 22.5843 25.1419 19.4284C25.1419 16.2725 22.5835 13.7142 19.4276 13.7142C16.2717 13.7142 13.7134 16.2725 13.7134 19.4284C13.7134 22.5843 16.2717 25.1427 19.4276 25.1427Z" fill="#FAB400"/>
<path d="M31.3298 28.098C30.8835 27.6517 29.4903 26.2586 29.0441 25.8123C28.1515 24.9197 26.7041 24.9197 25.8115 25.8123C24.9189 26.7049 24.9189 28.1523 25.8115 29.0449L28.0972 31.3305C28.9898 32.2231 30.4372 32.2231 31.3298 31.3305C32.2229 30.4374 32.2229 28.9906 31.3298 28.098Z" fill="#C80A50"/>
<path d="M19.428 20.5712C18.7966 20.5712 18.2852 20.0598 18.2852 19.4284V15.9998C18.2852 15.3684 18.7966 14.857 19.428 14.857C20.0594 14.857 20.5709 15.3684 20.5709 15.9998V19.4284C20.5709 20.0598 20.0594 20.5712 19.428 20.5712Z" fill="#F0F0F0"/>
<path d="M19.428 23.9998C20.0592 23.9998 20.5709 23.4881 20.5709 22.857C20.5709 22.2258 20.0592 21.7141 19.428 21.7141C18.7968 21.7141 18.2852 22.2258 18.2852 22.857C18.2852 23.4881 18.7968 23.9998 19.428 23.9998Z" fill="#F0F0F0"/>
</svg>
