<svg width="21" height="20" viewBox="0 0 21 20" fill="none" xmlns="http://www.w3.org/2000/svg">
<path d="M19.5 15V17C19.5 17.5304 19.2893 18.0391 18.9142 18.4142C18.5391 18.7893 18.0304 19 17.5 19H3.5C2.96957 19 2.46086 18.7893 2.08579 18.4142C1.71071 18.0391 1.5 17.5304 1.5 17V15M19.5 5V3C19.5 2.46957 19.2893 1.96086 18.9142 1.58579C18.5391 1.21071 18.0304 1 17.5 1H3.5C2.96957 1 2.46086 1.21071 2.08579 1.58579C1.71071 1.96086 1.5 2.46957 1.5 3V5" stroke="#18B4BF" stroke-width="2" stroke-linecap="round" stroke-linejoin="round"/>
<path d="M10.5 11C11.0523 11 11.5 10.5523 11.5 10C11.5 9.44772 11.0523 9 10.5 9C9.94772 9 9.5 9.44772 9.5 10C9.5 10.5523 9.94772 11 10.5 11Z" stroke="#18B4BF" stroke-width="2" stroke-linecap="round" stroke-linejoin="round"/>
<path d="M17.444 10.33C17.5187 10.1164 17.5187 9.88369 17.444 9.67003C16.881 8.29045 15.9198 7.10985 14.6831 6.27879C13.4463 5.44774 11.9901 5.00391 10.5 5.00391C9.00998 5.00391 7.55372 5.44774 6.31696 6.27879C5.08021 7.10985 4.11903 8.29045 3.55602 9.67003C3.48133 9.88369 3.48133 10.1164 3.55602 10.33C4.11903 11.7096 5.08021 12.8902 6.31696 13.7213C7.55372 14.5523 9.00998 14.9962 10.5 14.9962C11.9901 14.9962 13.4463 14.5523 14.6831 13.7213C15.9198 12.8902 16.881 11.7096 17.444 10.33Z" stroke="#18B4BF" stroke-width="2" stroke-linecap="round" stroke-linejoin="round"/>
</svg>
