<svg width="15" height="18" viewBox="0 0 15 18" fill="none" xmlns="http://www.w3.org/2000/svg">
<path d="M14.4151 6.01275C14.3736 5.91781 14.3155 5.831 14.2436 5.75638L8.99362 0.506375C8.919 0.434478 8.83219 0.376409 8.73725 0.334875C8.711 0.322625 8.683 0.315625 8.655 0.306C8.58176 0.281176 8.50556 0.26617 8.42837 0.261375C8.41 0.259625 8.39337 0.25 8.375 0.25H2.25C1.28487 0.25 0.5 1.03487 0.5 2V16C0.5 16.9651 1.28487 17.75 2.25 17.75H12.75C13.7151 17.75 14.5 16.9651 14.5 16V6.375C14.5 6.35663 14.4904 6.34 14.4886 6.32075C14.4838 6.24357 14.4688 6.16736 14.444 6.09412C14.4358 6.06612 14.4262 6.039 14.4151 6.01275ZM11.5128 5.5H9.25V3.23725L11.5128 5.5ZM2.25 16V2H7.5V6.375C7.5 6.60706 7.59219 6.82962 7.75628 6.99372C7.92038 7.15781 8.14294 7.25 8.375 7.25H12.75L12.7518 16H2.25Z" fill="#8E8E8E"/>
<path d="M4 9H11V10.75H4V9ZM4 12.5H11V14.25H4V12.5ZM4 5.5H5.75V7.25H4V5.5Z" fill="#8E8E8E"/>
</svg>
