<svg width="19" height="19" viewBox="0 0 19 19" fill="none" xmlns="http://www.w3.org/2000/svg">
<path d="M5.5 15.375H14.5C15.2956 15.375 16.0587 15.0589 16.6213 14.4963C17.1839 13.9337 17.5 13.1706 17.5 12.375C17.5 11.5794 17.1839 10.8163 16.6213 10.2537C16.0587 9.69107 15.2956 9.375 14.5 9.375H4C3.20435 9.375 2.44129 9.05893 1.87868 8.49632C1.31607 7.93371 1 7.17065 1 6.375C1 5.57935 1.31607 4.81629 1.87868 4.25368C2.44129 3.69107 3.20435 3.375 4 3.375H8.863M3.25 13.5C3.84674 13.5 4.41903 13.7371 4.84099 14.159C5.26295 14.581 5.5 15.1533 5.5 15.75C5.5 16.3467 5.26295 16.919 4.84099 17.341C4.41903 17.7629 3.84674 18 3.25 18C2.65326 18 2.08097 17.7629 1.65901 17.341C1.23705 16.919 1 16.3467 1 15.75C1 15.1533 1.23705 14.581 1.65901 14.159C2.08097 13.7371 2.65326 13.5 3.25 13.5ZM11.5 1.5C11.7955 1.5 12.0881 1.5582 12.361 1.67127C12.634 1.78434 12.8821 1.95008 13.091 2.15901C13.2999 2.36794 13.4657 2.61598 13.5787 2.88896C13.6918 3.16194 13.75 3.45453 13.75 3.75C13.75 4.04547 13.6918 4.33806 13.5787 4.61104C13.4657 4.88402 13.2999 5.13206 13.091 5.34099C12.8821 5.54992 12.634 5.71566 12.361 5.82873C12.0881 5.9418 11.7955 6 11.5 6C10.9033 6 10.331 5.76295 9.90901 5.34099C9.48705 4.91903 9.25 4.34674 9.25 3.75C9.25 3.15326 9.48705 2.58097 9.90901 2.15901C10.331 1.73705 10.9033 1.5 11.5 1.5Z" stroke="#64748B" stroke-width="1.7"/>
</svg>
