<svg id="Layer_1" data-name="Layer 1" xmlns="http://www.w3.org/2000/svg" viewBox="0 0 1500 1500"><defs><style>.cls-1{fill:#1e4c9d;}</style></defs><path class="cls-1" d="M310,1709.5a99.62,99.62,0,0,1-99.5-99.5V310A99.62,99.62,0,0,1,310,210.5H1610a99.62,99.62,0,0,1,99.5,99.5V1610a99.62,99.62,0,0,1-99.5,99.5Zm150-1300A50.55,50.55,0,0,0,409.5,460V1460a50.55,50.55,0,0,0,50.5,50.5H1460a50.55,50.55,0,0,0,50.5-50.5V460a50.55,50.55,0,0,0-50.5-50.5Z" transform="translate(-210 -210)"/><path d="M1610,211a99.11,99.11,0,0,1,99,99V1610a99.11,99.11,0,0,1-99,99H310a99.11,99.11,0,0,1-99-99V310a99.11,99.11,0,0,1,99-99H1610M460,1511H1460a51.06,51.06,0,0,0,51-51V460a51.06,51.06,0,0,0-51-51H460a51.06,51.06,0,0,0-51,51V1460a51.06,51.06,0,0,0,51,51M1610,210H310A100,100,0,0,0,210,310V1610a100,100,0,0,0,100,100H1610a100,100,0,0,0,100-100V310a100,100,0,0,0-100-100ZM460,1510a50,50,0,0,1-50-50V460a50,50,0,0,1,50-50H1460a50,50,0,0,1,50,50V1460a50,50,0,0,1-50,50Z" transform="translate(-210 -210)"/><path class="cls-1" d="M635,1334.5a49.56,49.56,0,0,1-49.5-49.5V635A49.56,49.56,0,0,1,635,585.5h650a49.56,49.56,0,0,1,49.5,49.5v650a49.56,49.56,0,0,1-49.5,49.5Zm325-550c-96.77,0-175.5,78.73-175.5,175.5s78.73,175.5,175.5,175.5,175.5-78.73,175.5-175.5S1056.77,784.5,960,784.5Z" transform="translate(-210 -210)"/><path d="M1285,586a49.05,49.05,0,0,1,49,49v650a49.05,49.05,0,0,1-49,49H635a49.05,49.05,0,0,1-49-49V635a49.05,49.05,0,0,1,49-49h650M960,1136c97,0,176-79,176-176s-79-176-176-176S784,863,784,960s79,176,176,176m325-551H635a50,50,0,0,0-50,50v650a50,50,0,0,0,50,50h650a50,50,0,0,0,50-50V635a50,50,0,0,0-50-50ZM960,1135a175,175,0,1,1,175-175,175,175,0,0,1-175,175Z" transform="translate(-210 -210)"/></svg>