<?xml version="1.0" encoding="UTF-8"?>
<svg version="1.1" xmlns="http://www.w3.org/2000/svg" width="500" height="500">
<path d="M0 0 C1.34165497 -0.00274703 2.68330778 -0.00680459 4.02495533 -0.01204365 C7.67834285 -0.02254547 11.33148267 -0.01455736 14.98485911 -0.00329316 C18.9379093 0.00560135 22.8909289 -0.00290977 26.84397888 -0.00915527 C34.57511383 -0.01861515 42.30615504 -0.01206796 50.037283 0.00010767 C59.05151731 0.01377174 68.06572964 0.0120859 77.07997168 0.00997434 C93.17077035 0.0067885 109.26152467 0.01842845 125.35231018 0.03804016 C140.94477184 0.05703936 156.53718153 0.06412801 172.12965393 0.05854797 C189.13156111 0.05248149 206.13344547 0.05268341 223.13535076 0.06403381 C224.950525 0.06524102 226.76569925 0.06644701 228.58087349 0.06765175 C229.47384022 0.06825529 230.36680694 0.06885883 231.28683327 0.06948065 C237.56115318 0.07334994 243.83546456 0.07297001 250.10978508 0.0710659 C257.76320616 0.0689373 265.41658188 0.07421813 273.06999021 0.08867946 C276.97034244 0.09589171 280.87062881 0.10002775 284.77098656 0.0954361 C288.34934104 0.09132619 291.92756023 0.09661906 295.50589431 0.10906217 C297.39652398 0.1133251 299.28716806 0.10793687 301.17779344 0.10207289 C309.04991798 0.1419758 316.56183549 0.96736773 324.3061676 2.3742218 C324.3061676 3.0342218 324.3061676 3.6942218 324.3061676 4.3742218 C325.18530823 4.6423468 326.06444885 4.9104718 326.9702301 5.1867218 C338.66673398 9.35034848 346.31317805 17.51681827 352.1186676 28.2492218 C356.67148777 38.29658312 357.7478642 48.09283771 357.69384766 59.02336121 C357.6980304 60.36018002 357.70351304 61.69699527 357.71016747 63.03380406 C357.72451761 66.67384529 357.7204104 70.31365809 357.71300066 73.95371127 C357.7082452 77.89247638 357.72079973 81.83119374 357.73101807 85.76994324 C357.74816508 93.47332867 357.74905461 101.17663238 357.74380516 108.88003193 C357.73975456 115.14488955 357.74121756 121.40972313 357.74655342 127.67457962 C357.74730184 128.56812866 357.74805027 129.4616777 357.74882137 130.38230399 C357.75035293 132.19787335 357.75189128 134.0134427 357.75343633 135.82901205 C357.76714656 152.83360195 357.76173409 169.83814576 357.75025112 186.84273459 C357.74032036 202.37808921 357.75325933 217.9133247 357.77718531 233.44866095 C357.80160425 249.42523616 357.81117732 265.40175594 357.80453259 281.37834942 C357.80104657 290.33803658 357.80323157 299.29763216 357.82078362 308.25730515 C357.83554059 315.88438085 357.83609552 323.51130048 357.8187127 331.13837324 C357.81022899 335.02475015 357.80798821 338.91084866 357.82336426 342.79721069 C357.8373006 346.36402748 357.83233523 349.93032972 357.81312502 353.49711742 C357.80764127 355.3790662 357.82156157 357.26104179 357.83647913 359.14293945 C357.70255573 374.82320001 352.65399784 388.7523587 341.9311676 400.3117218 C326.10474051 414.77750584 305.97237929 415.65811829 285.71632385 415.75312805 C283.83972333 415.76933568 281.963131 415.78651899 280.08654785 415.80462646 C275.1813588 415.84999231 270.27615825 415.88496918 265.37086487 415.91682434 C257.49674057 415.96901114 249.62273647 416.03398611 241.74876213 416.1050396 C239.00733402 416.12778775 236.26592118 416.14410525 233.52444458 416.15975952 C231.84499437 416.17316686 230.16554581 416.18678172 228.48609924 416.20063782 C227.34912346 416.20455788 227.34912346 416.20455788 226.18917847 416.20855713 C222.44099458 416.24524732 218.95148725 416.47762448 215.3061676 417.3742218 C215.3061676 416.7142218 215.3061676 416.0542218 215.3061676 415.3742218 C214.74073242 415.53877365 214.17529724 415.7033255 213.59272766 415.87286377 C211.20022837 416.39745036 209.16668513 416.45777421 206.72120667 416.39595032 C205.82057495 416.37585403 204.91994324 416.35575775 203.99201965 416.33505249 C202.54650726 416.29449989 202.54650726 416.29449989 201.0717926 416.25312805 C200.07863037 416.22951706 199.08546814 416.20590607 198.06221008 416.18157959 C194.89337922 416.10507112 191.72480065 416.0209914 188.5561676 415.9367218 C186.40644032 415.8834883 184.25670077 415.83074799 182.10694885 415.77851868 C176.83986603 415.64947333 171.57297026 415.51421295 166.3061676 415.3742218 C166.3061676 416.0342218 166.3061676 416.6942218 166.3061676 417.3742218 C165.3161676 417.0442218 164.3261676 416.7142218 163.3061676 416.3742218 C160.71986536 416.28940408 158.16138704 416.25823951 155.57569885 416.27656555 C154.45006783 416.27868797 154.45006783 416.27868797 153.30169678 416.28085327 C150.907313 416.28644621 148.51302307 416.29899736 146.1186676 416.3117218 C144.49432 416.31673772 142.86997092 416.32130046 141.24562073 416.32539368 C137.26576691 416.33641332 133.28598317 416.35367307 129.3061676 416.3742218 C129.3061676 416.7042218 129.3061676 417.0342218 129.3061676 417.3742218 C127.6561676 417.3742218 126.0061676 417.3742218 124.3061676 417.3742218 C124.3061676 417.0442218 124.3061676 416.7142218 124.3061676 416.3742218 C119.09173428 416.34951245 113.877335 416.33135736 108.66285706 416.31929016 C106.88876248 416.3142598 105.11467204 416.30743481 103.34059143 416.29878235 C100.79134599 416.28666006 98.24215534 416.28098054 95.69288635 416.27656555 C94.89904037 416.27140427 94.1051944 416.26624298 93.28729248 416.26092529 C90.02960475 416.26059303 87.41935239 416.33649354 84.3061676 417.3742218 C84.3061676 416.7142218 84.3061676 416.0542218 84.3061676 415.3742218 C83.4502301 415.4464093 82.5942926 415.5185968 81.7124176 415.5929718 C59.83823274 417.16791311 37.80478564 416.50046388 15.89451599 416.05482483 C14.06638099 416.01820545 12.23819226 415.98416348 10.40995789 415.95289612 C-10.10408306 415.58961508 -28.32648958 413.6536755 -44.2563324 399.3742218 C-53.16974884 390.02346483 -57.75268776 378.19259605 -58.3188324 365.43281555 C-58.35677917 364.67101486 -58.39472595 363.90921417 -58.43382263 363.12432861 C-58.91083736 352.23580491 -58.76287021 341.33236825 -58.6938324 330.4367218 C-58.66724335 326.13594347 -58.64732259 321.83520725 -58.6313324 317.53437805 C-58.62303406 316.55638748 -58.61473572 315.57839691 -58.60618591 314.57077026 C-58.60123108 313.21676369 -58.60123108 313.21676369 -58.59617615 311.83540344 C-58.59093933 311.04364212 -58.58570251 310.2518808 -58.58030701 309.43612671 C-58.61397037 307.17448213 -58.61397037 307.17448213 -59.6938324 304.3742218 C-59.39084202 302.36940063 -59.05428363 300.36951276 -58.6938324 298.3742218 C-58.60852138 296.53479556 -58.56759759 294.6928743 -58.56684875 292.85147095 C-58.56402893 291.77896088 -58.56120911 290.70645081 -58.55830383 289.60144043 C-58.56032806 288.44018143 -58.56235229 287.27892242 -58.56443787 286.08247375 C-58.56268555 284.84771301 -58.56093323 283.61295227 -58.55912781 282.34077454 C-58.55548864 278.96704738 -58.55633021 275.5933818 -58.55950689 272.21965814 C-58.56204441 268.6856632 -58.55968923 265.15167083 -58.55812073 261.61767578 C-58.55630382 255.68715443 -58.55869355 249.75664555 -58.5634613 243.8261261 C-58.56891054 236.96870499 -58.56713456 230.11131359 -58.5616349 223.2538932 C-58.55709913 217.3624764 -58.55645527 211.47106856 -58.55907357 205.57965058 C-58.56063281 202.0623963 -58.56083958 198.54515599 -58.55753708 195.0279026 C-58.55411596 191.11118536 -58.55885567 187.19450152 -58.56443787 183.27778625 C-58.56241364 182.11045456 -58.5603894 180.94312286 -58.55830383 179.74041748 C-58.56112366 178.67636688 -58.56394348 177.61231628 -58.56684875 176.51602173 C-58.56722578 175.59003835 -58.56760281 174.66405497 -58.56799126 173.71001148 C-58.59890055 171.21779512 -58.59890055 171.21779512 -59.6938324 168.3742218 C-59.55114426 167.54386414 -59.40845612 166.71350647 -59.26144409 165.85798645 C-58.4861432 161.09951182 -58.5797403 156.44670694 -58.61204529 151.63398743 C-58.61511185 150.56319946 -58.61817841 149.4924115 -58.62133789 148.38917542 C-58.62847995 146.06804656 -58.63786315 143.74692376 -58.64923286 141.42581177 C-58.66667199 137.74174091 -58.67693918 134.05771376 -58.68515015 130.37361145 C-58.70955152 119.89981447 -58.74497728 109.42607604 -58.78977966 98.9523468 C-58.81670866 92.53932077 -58.83365768 86.12632901 -58.84464836 79.71325684 C-58.85082004 77.27982319 -58.86077683 74.84639587 -58.87472725 72.41299438 C-59.10401551 32.03679588 -59.10401551 32.03679588 -44.6938324 15.3742218 C-32.15371737 3.37638202 -16.89891289 -0.10208378 0 0 Z M15.3061676 70.3742218 C13.5183533 73.31684904 13.05545536 75.50410516 13.05169201 78.92578697 C13.04585982 79.83921722 13.04002762 80.75264746 13.0340187 81.69375741 C13.03779802 82.69355084 13.04157734 83.69334426 13.04547119 84.72343445 C13.04164564 85.78842592 13.0378201 86.85341739 13.03387862 87.95068133 C13.02353237 91.53120158 13.02754391 95.11156195 13.0315094 98.6920929 C13.02716382 101.25434518 13.02198119 103.81659617 13.01602173 106.37884521 C13.0039983 112.62346008 13.00148241 118.86801569 13.00382199 125.11263989 C13.00560423 130.18829927 13.00385754 135.2639456 12.99959755 140.33960342 C12.99900236 141.06169841 12.99840717 141.7837934 12.99779395 142.52777005 C12.99658221 143.99466653 12.99536807 145.46156301 12.99415157 146.92845948 C12.9832717 160.68941429 12.98544054 174.45034461 12.99153642 188.21130081 C12.99670506 200.80058429 12.98545233 213.38979038 12.9664382 225.97905855 C12.94706623 238.90430333 12.93880272 251.82951148 12.94256145 264.75477087 C12.94447459 272.01186203 12.94197505 279.26888732 12.92784691 286.52596664 C12.91469633 293.35002593 12.91718443 300.1739051 12.9302578 306.99797249 C12.93262968 309.50459533 12.92986711 312.01122899 12.92163467 314.51783943 C12.91121751 317.93575514 12.91922792 321.35314535 12.9319458 324.77104187 C12.92457152 325.76637385 12.91719723 326.76170583 12.90959948 327.78719938 C12.95086612 333.04761644 13.26345707 336.87207661 16.3061676 341.3742218 C22.59465574 345.56654723 31.29954041 344.52156232 38.64250183 344.5146637 C40.14733362 344.51912038 40.14733362 344.51912038 41.68256605 344.5236671 C45.02406814 344.53229739 48.36553418 344.53385748 51.70704651 344.53535461 C54.11077958 344.53998655 56.51451192 344.54501172 58.91824341 344.55039978 C65.43243423 344.56348362 71.9466182 344.56999726 78.46081972 344.57441044 C82.53124273 344.5771806 86.60166339 344.5814191 90.67208481 344.58591461 C101.95297661 344.59809494 113.23386655 344.60839963 124.51476479 344.6117897 C125.59549639 344.61211905 125.59549639 344.61211905 126.69806095 344.61245506 C127.42020209 344.61267333 128.14234323 344.61289161 128.88636744 344.6131165 C130.34954302 344.61355996 131.81271859 344.61400652 133.27589417 344.61445618 C134.36455656 344.61478832 134.36455656 344.61478832 135.47521214 344.61512718 C147.24871748 344.61907961 159.0221611 344.63655268 170.79564257 344.6598157 C182.89726655 344.68353349 194.99885954 344.69599159 207.10050714 344.69715762 C213.88975355 344.69807365 220.6789193 344.70380873 227.46814346 344.72197723 C233.8490424 344.7384282 240.22978805 344.74062783 246.61070061 344.73183823 C248.95243044 344.73106645 251.29416843 344.73542906 253.63587761 344.74529648 C256.83203539 344.75797525 260.02764685 344.75216114 263.22380066 344.74171448 C264.61393071 344.75379908 264.61393071 344.75379908 266.03214419 344.76612782 C272.29467063 344.71824181 277.01328865 343.7889997 282.1811676 339.9992218 C284.46339233 336.70267497 284.43129156 332.62590382 284.43480206 328.72525692 C284.4380265 327.81556902 284.44125095 326.90588112 284.4445731 325.96862692 C284.4430245 324.97816399 284.4414759 323.98770107 284.43988037 322.96722412 C284.44214593 321.9081342 284.44441148 320.84904428 284.44674569 319.75786072 C284.45308385 316.20345637 284.45225645 312.64909017 284.45143127 309.09468079 C284.45442281 306.54874116 284.45782533 304.00280198 284.46160889 301.4568634 C284.46953325 295.25651818 284.47266347 289.05618697 284.47322126 282.85583716 C284.47369651 277.81737336 284.47575168 272.77891271 284.47892189 267.74044991 C284.48772581 253.45783185 284.49234149 239.17522131 284.49159142 224.89260053 C284.49155146 224.12284658 284.4915115 223.35309264 284.49147034 222.56001282 C284.49142946 221.78932034 284.49138858 221.01862786 284.49134646 220.22458107 C284.4909397 207.72455938 284.50051747 195.22456776 284.5146087 182.72455477 C284.52896089 169.89195419 284.53587958 157.0593683 284.53501493 144.22675949 C284.53468264 137.02117998 284.53744399 129.81563203 284.54819298 122.61005974 C284.55823099 115.83773604 284.55797456 109.06549024 284.55067635 102.29315948 C284.54962674 99.80343338 284.55201549 97.31370319 284.5580368 94.82398415 C284.56570649 91.43398832 284.56114535 88.04422631 284.55340576 84.65423584 C284.56112111 83.16519537 284.56112111 83.16519537 284.56899232 81.64607328 C284.56209412 80.28545305 284.56209412 80.28545305 284.55505657 78.89734554 C284.55527394 78.11479426 284.55549131 77.33224298 284.55571526 76.52597803 C284.14903662 73.01934008 282.96973817 70.9528108 280.3264389 68.64803123 C275.88250056 66.77378551 271.75889101 66.96071595 266.98182678 66.99327087 C265.93160953 66.9885909 264.88139228 66.98391093 263.79935026 66.97908914 C260.27480213 66.96710837 256.7506406 66.97660868 253.22608948 66.98603821 C250.70147474 66.98197389 248.17686178 66.9766328 245.6522522 66.97010803 C239.50366486 66.957835 233.35522105 66.95965009 227.20663178 66.96834596 C222.20964476 66.9751206 217.21268853 66.97604017 212.21569824 66.97277451 C211.50455147 66.97231481 210.79340469 66.97185511 210.06070802 66.97138148 C208.61603533 66.9704223 207.17136266 66.96944966 205.72668999 66.9684637 C192.17939321 66.95990869 178.63215732 66.96974568 165.08487052 66.9858648 C153.46020077 66.9992681 141.83562089 66.99694004 130.21095276 66.98310852 C116.71219608 66.96705466 103.21349277 66.96073268 89.71472788 66.96994531 C88.27536425 66.97090096 86.83600061 66.97184407 85.39663696 66.97277451 C84.68843912 66.97323733 83.98024128 66.97370016 83.2505829 66.97417701 C78.25949015 66.97676748 73.26843126 66.97239467 68.27734375 66.96533585 C61.55996454 66.9560444 54.84278144 66.96265779 48.12541008 66.98001862 C45.65707113 66.98399234 43.18871791 66.98283436 40.7203846 66.97623062 C37.35689797 66.96806027 33.99395989 66.97828268 30.63050842 66.99327087 C29.64850952 66.98657871 28.66651061 66.97988654 27.65475416 66.97299159 C20.96755039 67.01902041 20.96755039 67.01902041 15.3061676 70.3742218 Z " fill="#3276E2" transform="translate(101.69383239746094,39.62577819824219)"/>
<path d="M0 0 C0.71042798 -0.00382555 1.42085596 -0.00765109 2.15281206 -0.01159257 C4.53339223 -0.02191156 6.91373071 -0.01793257 9.29432678 -0.01396179 C11.00107039 -0.01830887 12.70781204 -0.02349201 14.41455078 -0.02944946 C19.05088737 -0.04285096 23.68714249 -0.04341687 28.32349467 -0.04088616 C32.19288687 -0.03981726 36.06226252 -0.04469774 39.93165118 -0.04949158 C49.05939154 -0.06059069 58.18709075 -0.06102187 67.31483459 -0.05497742 C76.73407021 -0.0489359 86.15315652 -0.06125224 95.57236665 -0.08254749 C103.65739391 -0.10015486 111.74237361 -0.10616622 119.82741934 -0.10290974 C124.65713246 -0.1010954 129.48673908 -0.10374809 134.31643486 -0.11762428 C138.85793501 -0.130184 143.39920213 -0.12827616 147.94069862 -0.11521339 C149.60759942 -0.11284403 151.27451652 -0.11559517 152.94139862 -0.12383652 C155.21681913 -0.13427549 157.4914536 -0.12622691 159.7668457 -0.11352539 C161.0401773 -0.11369313 162.31350889 -0.11386087 163.62542629 -0.1140337 C168.19449227 0.40144804 170.74169707 2.05547881 173.94691467 5.26069641 C174.26124563 7.82788504 174.4568876 10.29592881 174.56382751 12.87324524 C174.62025101 14.01600151 174.62025101 14.01600151 174.67781436 15.18184376 C175.03277126 22.94005235 175.08813893 30.694843 175.0763092 38.45991516 C175.07766936 39.99459881 175.0794527 41.52928212 175.08161926 43.06396484 C175.08611756 47.17294388 175.08443671 51.28189738 175.08124018 55.39087677 C175.07868042 59.71743836 175.08106373 64.043998 175.08262634 68.37055969 C175.08443604 75.62251675 175.08207179 82.87446357 175.07728577 90.12641907 C175.07182899 98.49095125 175.07362088 106.85545912 175.07911217 115.21999073 C175.08365801 122.43570316 175.08428714 129.6514083 175.0816735 136.8671217 C175.08012094 141.16241034 175.07988919 145.45768757 175.08320999 149.75297546 C175.08611072 153.78489123 175.08407274 157.81677571 175.07831573 161.84868813 C175.07700063 163.32202414 175.07736087 164.79536281 175.0795784 166.26869774 C175.08549549 170.60119122 175.04699645 174.92934649 174.94691467 179.26069641 C174.91946482 180.62644806 174.91946482 180.62644806 174.89146042 182.01979065 C174.66906576 185.79081951 174.18650629 187.95162756 171.85209084 190.96298122 C168.19295325 193.85700745 166.28881606 193.8867883 161.65968323 193.8888855 C160.93615016 193.89597989 160.2126171 193.90307427 159.46715879 193.91038364 C157.04775759 193.9279568 154.62996448 193.90986416 152.21058655 193.89179993 C150.474134 193.89693905 148.73768667 193.90422027 147.00125122 193.91348267 C142.2883557 193.93200589 137.57602549 193.91905234 132.86315346 193.89939237 C127.93139101 193.88301215 122.99966454 193.89181789 118.06788635 193.89691162 C109.78577133 193.90143328 101.50388211 193.88555825 93.22181702 193.85762024 C83.64628245 193.82556803 74.07115513 193.82558385 64.49559164 193.84283501 C55.28461697 193.85869817 46.07379162 193.85196788 36.86282349 193.83489799 C32.94264756 193.82802496 29.02259124 193.82906254 25.10241699 193.83644295 C20.48611103 193.84410347 15.87026859 193.83198734 11.25404167 193.80459404 C9.55974135 193.79770667 7.86539776 193.79761603 6.17109871 193.80480957 C3.85826371 193.81349781 1.54686132 193.79756093 -0.76585388 193.77536011 C-2.70708759 193.77114973 -2.70708759 193.77114973 -4.68753815 193.76685429 C-8.63359238 193.17339167 -10.28620112 192.09098702 -13.05308533 189.26069641 C-14.2366139 185.71011068 -14.18501758 182.88771234 -14.19352722 179.13804626 C-14.19649834 178.40805495 -14.19946947 177.67806363 -14.20253062 176.92595136 C-14.21122105 174.47323115 -14.21272615 172.02055972 -14.21421814 169.56782532 C-14.21884603 167.81196997 -14.22387065 166.05611562 -14.22926331 164.30026245 C-14.2423911 159.52546365 -14.24883286 154.75067892 -14.25327396 149.97586489 C-14.25620374 146.99396735 -14.26030834 144.01207367 -14.26477814 141.03017807 C-14.27845332 131.70391852 -14.28812019 122.37766776 -14.29198003 113.05139887 C-14.29646267 102.27900713 -14.31402008 91.50674214 -14.34298062 80.73438895 C-14.36458058 72.41159893 -14.37468339 64.08884462 -14.37602115 55.76602685 C-14.37707027 50.79320873 -14.38300107 45.82050976 -14.40084076 40.8477211 C-14.41729257 36.17082158 -14.41949104 31.49413116 -14.41070175 26.81721306 C-14.40992986 25.10031894 -14.41429412 23.38341372 -14.42416 21.66654778 C-14.43683658 19.32321949 -14.43102655 16.98063666 -14.420578 14.63731384 C-14.42204456 13.32581171 -14.42351112 12.01430958 -14.42502213 10.66306496 C-14.0230199 6.98566675 -13.34876728 5.13717351 -11.05308533 2.26069641 C-7.63053614 -0.27916488 -4.15324681 0.00669786 0 0 Z M49.94691467 70.26069641 C49.30882874 70.85753235 48.6707428 71.45436829 48.01332092 72.06929016 C41.13083404 79.18859379 37.43063263 88.42509798 36.94691467 98.26069641 C36.88503967 98.93100891 36.82316467 99.60132141 36.75941467 100.29194641 C36.15819316 110.66301744 40.09751341 121.5000666 46.94691467 129.26069641 C58.4052963 139.95376869 70.39350666 142.97688474 85.78285217 142.57319641 C97.06766996 141.96072326 106.64447762 136.01272384 114.25941467 127.94819641 C123.02556996 117.61041965 123.78977502 106.29069303 122.94691467 93.26069641 C121.13485162 81.37479128 113.39923058 72.23740577 103.94691467 65.26069641 C87.44217985 54.46913903 64.15517752 56.92847289 49.94691467 70.26069641 Z " fill="#3378E4" transform="translate(170.05308532714844,145.7393035888672)"/>
<path d="M0 0 C0.33 0 0.66 0 1 0 C1.00331015 0.93006017 1.00662029 1.86012033 1.01003075 2.81836414 C1.09094855 25.42662135 1.18324051 48.03481017 1.28752708 70.64297199 C1.33769426 81.57601325 1.38413666 92.50904686 1.421875 103.44213867 C1.45476895 112.96905679 1.49458569 122.49591622 1.54279006 132.02276963 C1.56808092 137.06929321 1.58985452 142.11577772 1.60334396 147.16234779 C1.61614089 151.90897286 1.63816952 156.65546413 1.66738319 161.40201569 C1.67647756 163.14714045 1.68215351 164.89228676 1.68421364 166.63743401 C1.6875231 169.01436811 1.70296439 171.39091984 1.7215271 173.76777649 C1.71959237 174.46329961 1.71765763 175.15882272 1.71566427 175.8754223 C1.75796123 179.48143355 1.93719043 180.90578565 4 184 C7.19184356 184.45042367 7.19184356 184.45042367 11.03604126 184.36076355 C11.76870598 184.36332682 12.5013707 184.3658901 13.25623739 184.36853105 C15.72394232 184.37349279 18.19104236 184.35693727 20.65869141 184.34057617 C22.42251064 184.33973041 24.18633092 184.34020404 25.95014954 184.34190369 C30.74955663 184.34276707 35.54874039 184.325086 40.34809542 184.30418181 C45.35960551 184.28547198 50.37112029 184.28366908 55.38265991 184.28010559 C64.87766371 184.27076835 74.37256431 184.2461319 83.8675226 184.21605712 C94.67508764 184.18256529 105.48265752 184.16604025 116.29026151 184.15097082 C138.52689868 184.11958377 160.76344285 184.06679071 183 184 C183.67305217 180.9095364 184.13283694 177.99329833 184.19639587 174.83192444 C184.21454535 174.0315658 184.23269482 173.23120716 184.25139427 172.40659523 C184.26632235 171.54031187 184.28125042 170.67402851 184.29663086 169.78149414 C184.31589945 168.85568228 184.33516804 167.92987041 184.35502052 166.97600365 C184.41743361 163.89162948 184.47269494 160.80717714 184.52734375 157.72265625 C184.56903731 155.53101001 184.61078131 153.33936472 184.65257263 151.14772034 C185.10889693 126.44517195 185.32686221 101.73997225 185.53222656 77.03430176 C185.58382633 70.90370858 185.638765 64.77314523 185.69335938 58.64257812 C185.798701 46.76174459 185.90057451 34.88088442 186 23 C188 25 188 25 188.24888897 27.5323267 C188.2483442 28.61019664 188.24779943 29.68806658 188.24723816 30.79859924 C188.25143265 32.03363693 188.25562714 33.26867462 188.25994873 34.5411377 C188.25446461 35.91748125 188.24878161 37.29382402 188.24291992 38.67016602 C188.24399245 40.11396877 188.24593069 41.55777111 188.24867249 43.00157166 C188.25353173 46.9317265 188.24584934 50.86176828 188.23571944 54.79190946 C188.22694459 58.90635124 188.22869636 63.02078941 188.2290802 67.13523865 C188.22814253 74.05315035 188.21944905 80.97101831 188.20581055 87.88891602 C188.19012738 95.87312126 188.18481092 103.85727842 188.1855461 111.84149796 C188.18622359 120.34937573 188.17926591 128.8572351 188.1700995 137.3651073 C188.16797409 139.81026006 188.16725909 142.25540983 188.16686058 144.70056343 C188.16585028 148.55746129 188.15969798 152.41431932 188.14969444 156.27120399 C188.14679166 157.6816356 188.14553953 159.09207179 188.14612198 160.50250626 C188.14719105 164.67025711 188.10309236 168.83352174 188 173 C187.9813772 173.8987126 187.9627544 174.79742519 187.94356728 175.72337151 C187.72047578 179.50420718 187.24448402 181.68434258 184.90523815 184.70458221 C181.24603642 187.5957038 179.34031637 187.6260926 174.71276855 187.62818909 C173.98923549 187.63528347 173.26570243 187.64237786 172.52024412 187.64968723 C170.10084292 187.66726039 167.68304981 187.64916775 165.26367188 187.63110352 C163.52721933 187.63624264 161.790772 187.64352386 160.05433655 187.65278625 C155.34144102 187.67130948 150.62911082 187.65835593 145.91623878 187.63869596 C140.98447634 187.62231574 136.05274987 187.63112148 131.12097168 187.63621521 C122.83885666 187.64073687 114.55696744 187.62486184 106.27490234 187.59692383 C96.69936777 187.56487161 87.12424046 187.56488744 77.54867697 187.5821386 C68.3377023 187.59800176 59.12687695 187.59127147 49.91590881 187.57420158 C45.99573289 187.56732855 42.07567657 187.56836613 38.15550232 187.57574654 C33.53919635 187.58340706 28.92335392 187.57129093 24.307127 187.54389763 C22.61282668 187.53701025 20.91848309 187.53691962 19.22418404 187.54411316 C16.91134904 187.5528014 14.59994665 187.53686452 12.28723145 187.5146637 C10.34599773 187.51045331 10.34599773 187.51045331 8.36554718 187.50615788 C4.41949295 186.91269526 2.7668842 185.83029061 0 183 C-1.18698345 179.43904965 -1.12590615 176.61122142 -1.12698364 172.85043335 C-1.12854363 172.11761977 -1.13010362 171.38480619 -1.13171089 170.62978613 C-1.13570805 168.16772124 -1.13253622 165.70571772 -1.12939453 163.24365234 C-1.13074912 161.48130762 -1.13252937 159.71896317 -1.13470459 157.95661926 C-1.13927143 153.16555321 -1.1374926 148.37450865 -1.1343255 143.58344221 C-1.13179885 138.57773244 -1.13414022 133.57202454 -1.13571167 128.5663147 C-1.13753213 120.16139393 -1.13512993 111.75648194 -1.13037109 103.3515625 C-1.12492518 93.62046683 -1.12669402 83.8893921 -1.1321975 74.15829694 C-1.13672792 65.81518829 -1.13737963 57.47208595 -1.13475883 49.12897646 C-1.13319612 44.1406823 -1.1330022 39.152398 -1.13629532 34.16410446 C-1.13917312 29.47742158 -1.13720003 24.79076585 -1.13140106 20.10408592 C-1.13007313 18.37906756 -1.13046814 16.65404694 -1.13266373 14.92902946 C-1.13537384 12.58452138 -1.13199589 10.24010173 -1.12698364 7.89559937 C-1.12660662 6.58041006 -1.12622959 5.26522076 -1.12584114 3.91017723 C-1 1 -1 1 0 0 Z " fill="#18409A" transform="translate(157,152)"/>
<path d="M0 0 C1.69150447 2.95740924 2.25066387 5.07419693 2.25447559 8.47068501 C2.26030779 9.36608157 2.26613998 10.26147814 2.27214891 11.18400794 C2.26836958 12.1636645 2.26459026 13.14332106 2.26069641 14.15266418 C2.26452196 15.19653233 2.26834751 16.24040047 2.27228898 17.31590098 C2.28263421 20.8249906 2.27862388 24.33391706 2.2746582 27.84301758 C2.27900387 30.35438692 2.28418653 32.86575494 2.29014587 35.37712097 C2.3021691 41.49774383 2.30468519 47.61830623 2.30234561 53.73893861 C2.30056318 58.71447507 2.30231049 63.6899982 2.30657005 68.66553307 C2.30716524 69.37346252 2.30776043 70.08139198 2.30837366 70.81077385 C2.3095854 72.24891959 2.31079954 73.68706534 2.31201603 75.12521108 C2.32289602 88.6167518 2.32072713 102.10826754 2.31463119 115.59980967 C2.30946376 127.93945695 2.32071203 140.27902525 2.33972941 152.61865691 C2.35910767 165.28965387 2.36736369 177.96061347 2.36360615 190.63162535 C2.36169381 197.74510813 2.36418468 204.85852371 2.37832069 211.9719944 C2.39148109 218.66227145 2.38897457 225.35236487 2.37590981 232.04265022 C2.37353981 234.49886376 2.37629378 236.95508835 2.38453293 239.41128922 C2.39496612 242.76317228 2.38692667 246.11452117 2.3742218 249.46638489 C2.38159609 250.43934928 2.38897037 251.41231368 2.39656812 252.41476184 C2.35162798 258.04725803 1.68498158 262.01636382 -1 267 C-2.8125 268.75 -2.8125 268.75 -5 270 C-5.76077347 270.51499557 -6.52154694 271.02999115 -7.30537415 271.56059265 C-12.92252008 273.749004 -18.32758261 273.36082962 -24.30151367 273.28051758 C-25.65711335 273.27307656 -27.01272075 273.26694637 -28.36833191 273.26202393 C-32.03768387 273.24473496 -35.70662146 273.20843188 -39.37578368 273.16811585 C-43.21800642 273.1285827 -47.06033051 273.10478323 -50.90266418 273.07878113 C-57.35116612 273.03271575 -63.79947202 272.97457054 -70.24780273 272.90893555 C-77.70499434 272.83315223 -85.16216041 272.7751393 -92.61957759 272.72690278 C-99.79576774 272.6801905 -106.9718226 272.62226555 -114.14788246 272.55875206 C-117.20162763 272.53184346 -120.25536794 272.50863914 -123.30916405 272.48835182 C-126.90191886 272.46388246 -130.49444716 272.42953443 -134.08703804 272.38749695 C-136.03654404 272.36698255 -137.98614459 272.35617654 -139.93572998 272.34562683 C-141.09233627 272.33012787 -142.24894257 272.31462891 -143.44059753 272.29866028 C-144.4476987 272.28923306 -145.45479986 272.27980585 -146.49241924 272.27009296 C-149 272 -149 272 -152 270 C-144.97427413 268.90687535 -138.09457871 268.88507801 -130.99389648 268.93408203 C-129.01816169 268.94125472 -127.04242688 268.94842333 -125.06669152 268.95543838 C-122.95680121 268.96380594 -120.8469348 268.97460103 -118.73705864 268.98596573 C-114.32806081 269.00915388 -109.91906737 269.02236882 -105.51002502 269.03366089 C-92.97740855 269.066994 -80.44486016 269.10875158 -67.91235352 269.17138672 C-60.97979146 269.20595071 -54.04727887 269.22973123 -47.11463982 269.24159515 C-42.73595661 269.24967153 -38.35759915 269.27086101 -33.97902095 269.30180001 C-30.61158521 269.32162272 -27.24420065 269.32164654 -23.87670898 269.32470703 C-22.06783958 269.34324234 -22.06783958 269.34324234 -20.22242737 269.3621521 C-13.16355322 269.34522541 -7.25367568 269.25367568 -2 264 C-1.14231947 260.75239985 -0.87267541 257.68858095 -0.8613348 254.33986187 C-0.85586036 253.42770717 -0.85038591 252.51555248 -0.84474558 251.57575673 C-0.84376747 250.58256533 -0.84278936 249.58937393 -0.84178162 248.56608582 C-0.83684364 247.50417363 -0.83190566 246.44226144 -0.82681805 245.3481701 C-0.81144119 241.78444246 -0.80308187 238.22073283 -0.79467773 234.65698242 C-0.78509936 232.10455161 -0.77508931 229.55212238 -0.76467896 226.99969482 C-0.74322763 221.50167052 -0.72478421 216.00364917 -0.70907402 210.5056057 C-0.68635458 202.55637511 -0.65821464 194.60717097 -0.62875474 186.65796284 C-0.58110425 173.76067506 -0.53783318 160.86337646 -0.49731445 147.96606445 C-0.45794658 135.4380611 -0.41651726 122.91006735 -0.37231445 110.38208008 C-0.36822804 109.22360272 -0.36822804 109.22360272 -0.36405908 108.04172178 C-0.35037939 104.16720038 -0.33665916 100.29267912 -0.32291877 96.41815794 C-0.20899395 64.2787918 -0.10217577 32.13940571 0 0 Z " fill="#1648AF" transform="translate(386,114)"/>
<path d="M0 0 C0.33 0 0.66 0 1 0 C0.61413434 11.57596983 -4.73475253 20.57451386 -12.66015625 28.81640625 C-28.32605601 43.43616913 -48.33640393 44.28390876 -68.58984375 44.37890625 C-70.46644427 44.39511387 -72.3430366 44.41229719 -74.21961975 44.43040466 C-79.1248088 44.47577051 -84.03000935 44.51074738 -88.93530273 44.54260254 C-96.80942703 44.59478934 -104.68343113 44.65976431 -112.55740547 44.73081779 C-115.29883358 44.75356595 -118.04024642 44.76988344 -120.78172302 44.78553772 C-122.46117323 44.79894506 -124.1406218 44.81255992 -125.82006836 44.82641602 C-126.95704414 44.83033607 -126.95704414 44.83033607 -128.11698914 44.83433533 C-131.86517302 44.87102551 -135.35468035 45.10340268 -139 46 C-139 45.34 -139 44.68 -139 44 C-139.56543518 44.16455185 -140.13087036 44.3291037 -140.71343994 44.49864197 C-143.10593924 45.02322856 -145.13948247 45.08355241 -147.58496094 45.02172852 C-148.48559265 45.00163223 -149.38622437 44.98153595 -150.31414795 44.96083069 C-151.75966034 44.92027809 -151.75966034 44.92027809 -153.234375 44.87890625 C-154.22753723 44.85529526 -155.22069946 44.83168427 -156.24395752 44.80735779 C-159.41278838 44.73084932 -162.58136696 44.6467696 -165.75 44.5625 C-167.89972728 44.5092665 -170.04946684 44.45652619 -172.19921875 44.40429688 C-177.46630158 44.27525153 -182.73319735 44.13999115 -188 44 C-188 44.66 -188 45.32 -188 46 C-188.99 45.67 -189.98 45.34 -191 45 C-193.58630224 44.91518227 -196.14478056 44.88401771 -198.73046875 44.90234375 C-199.85609978 44.90446617 -199.85609978 44.90446617 -201.00447083 44.90663147 C-203.3988546 44.9122244 -205.79314453 44.92477556 -208.1875 44.9375 C-209.81184761 44.94251592 -211.43619668 44.94707866 -213.06054688 44.95117188 C-217.04040069 44.96219152 -221.02018444 44.97945127 -225 45 C-225 45.33 -225 45.66 -225 46 C-226.65 46 -228.3 46 -230 46 C-230 45.67 -230 45.34 -230 45 C-235.21443333 44.97529065 -240.42883261 44.95713556 -245.64331055 44.94506836 C-247.41740513 44.940038 -249.19149556 44.93321301 -250.96557617 44.92456055 C-253.51482161 44.91243826 -256.06401226 44.90675874 -258.61328125 44.90234375 C-259.40712723 44.89718246 -260.20097321 44.89202118 -261.01887512 44.88670349 C-264.27656286 44.88637123 -266.88681521 44.96227174 -270 46 C-270 45.34 -270 44.68 -270 44 C-271.28390625 44.10828125 -271.28390625 44.10828125 -272.59375 44.21875 C-295.55876655 45.87223119 -318.68863968 45.07472406 -341.6875 44.5625 C-343.07955154 44.53316376 -343.07955154 44.53316376 -344.49972534 44.50323486 C-347.1497041 44.44600828 -349.7994439 44.38234044 -352.44921875 44.31640625 C-353.63623383 44.2913224 -353.63623383 44.2913224 -354.847229 44.26573181 C-358.66966612 44.16253049 -362.27967571 43.90894024 -366 43 C-366 42.67 -366 42.34 -366 42 C-364.99605223 41.99853479 -364.99605223 41.99853479 -363.97182268 41.99703997 C-324.26445264 41.93871149 -284.55713836 41.86487208 -244.84983572 41.77101372 C-240.07738097 41.75974616 -235.30492594 41.74860761 -230.5324707 41.73754883 C-229.10736352 41.7342433 -229.10736352 41.7342433 -227.65346629 41.730871 C-212.28944161 41.6955416 -196.92541698 41.6706529 -181.56136679 41.64965298 C-165.78515883 41.62785617 -150.00900338 41.59476902 -134.23284012 41.55129844 C-124.50565013 41.52484847 -114.77852552 41.50710415 -105.05130137 41.50065396 C-98.37227794 41.49537966 -91.69333662 41.47909451 -85.01435726 41.45433434 C-81.16647771 41.440389 -77.31874491 41.43112224 -73.47083855 41.43499184 C-69.28516848 41.43907314 -65.09991002 41.41987658 -60.91429138 41.39872742 C-59.11801155 41.40599878 -59.11801155 41.40599878 -57.28544325 41.41341704 C-39.8955227 41.26929911 -24.82335274 37.28455641 -12 25 C-5.61661296 17.65239197 -2.22856023 9.39491079 0 0 Z " fill="#153283" transform="translate(456,411)"/>
<path d="M0 0 C0.84028065 2.92497366 1.12240367 5.51236474 1.11466789 8.55156517 C1.11480884 9.46499542 1.1149498 10.37842566 1.11509502 11.31953561 C1.11013582 12.31932903 1.10517662 13.31912246 1.10006714 14.34921265 C1.09880487 15.41420412 1.09754259 16.47919559 1.09624207 17.57645953 C1.09085022 21.15695587 1.07832368 24.7373927 1.06591797 28.31787109 C1.06072645 30.88012095 1.05601798 33.44237183 1.05175781 36.00462341 C1.04180642 41.52831355 1.02900488 47.05198597 1.01403427 52.57566452 C0.99066388 61.30650804 0.97766114 70.03735272 0.96633911 78.76821899 C0.96233768 81.75549133 0.95826899 84.74276357 0.95417976 87.73003578 C0.95316054 88.4765761 0.95214131 89.22311641 0.95109119 89.99227916 C0.93934926 98.48932186 0.92547031 106.9863606 0.91064453 115.48339844 C0.9092921 116.26011302 0.90793967 117.03682761 0.90654625 117.837079 C0.88436153 130.42634755 0.85449173 143.01558941 0.82267712 155.60483675 C0.79029282 168.53006689 0.76942116 181.45528307 0.75840485 194.38054907 C0.75117952 202.35303463 0.73447245 210.32538815 0.70560409 218.29782523 C0.68436774 224.40648291 0.67875511 230.51505184 0.67897034 236.62375069 C0.67654433 239.13038368 0.66894736 241.63701772 0.65584183 244.14361763 C0.63871484 247.56150539 0.64002098 250.97890598 0.64596558 254.39682007 C0.63654493 255.39215205 0.62712429 256.38748402 0.61741817 257.41297758 C0.64816169 262.68557829 0.98805805 266.46221577 4 271 C11.48972446 275.11694444 23.49261561 273.22892124 31.88671875 273.16015625 C33.63336348 273.15386514 35.38001229 273.148632 37.12666321 273.14439392 C41.7160201 273.13115031 46.30524153 273.1067846 50.89453125 273.07904053 C59.05854159 273.0306916 67.22260656 272.99774356 75.38671875 272.97265625 C76.68855417 272.96813383 76.68855417 272.96813383 78.0166893 272.96352005 C91.37150044 272.92341598 104.66625771 273.17681719 118 274 C118 274.33 118 274.66 118 275 C99.13619237 276.55854919 80.20732941 276.3741891 61.29223633 276.45996094 C56.79283266 276.48237004 52.29424094 276.52438107 47.79516602 276.58300781 C42.32480329 276.65409355 36.85521351 276.69078465 31.38441277 276.70307922 C29.31156872 276.71345552 27.23874709 276.73582167 25.16617012 276.77067566 C22.27074516 276.81692993 19.37837905 276.81887968 16.48266602 276.81054688 C15.637323 276.83414276 14.79197998 276.85773865 13.92102051 276.88204956 C7.93407785 276.79891807 4.88182296 274.9268246 0.51428127 270.89337921 C-2.04509203 267.69327082 -2.12506841 264.43789443 -2.12863445 260.44284821 C-2.13347112 259.07085274 -2.13347112 259.07085274 -2.1384055 257.67114019 C-2.1368569 256.66998253 -2.1353083 255.66882487 -2.13371277 254.6373291 C-2.13597833 253.5709265 -2.13824388 252.5045239 -2.14057809 251.40580606 C-2.14692499 247.82065668 -2.14608829 244.23554502 -2.14526367 240.65039062 C-2.14825469 238.08489432 -2.15165708 235.51939846 -2.15544128 232.9539032 C-2.16337056 226.70195185 -2.16649613 220.4500144 -2.16705366 214.19805849 C-2.1675287 209.11761807 -2.16958285 204.03718077 -2.17275429 198.95674133 C-2.18156023 184.55754009 -2.18617364 170.1583463 -2.18542381 155.75914234 C-2.18538386 154.982849 -2.1853439 154.20655566 -2.18530273 153.40673828 C-2.18526185 152.62949907 -2.18522097 151.85225987 -2.18517885 151.05146796 C-2.18477218 138.44791836 -2.19434731 125.84439862 -2.2084411 113.24085766 C-2.22279334 100.30432762 -2.22971195 87.36781215 -2.22884732 74.43127394 C-2.228515 67.16643482 -2.23127754 59.901627 -2.24202538 52.63679504 C-2.25206355 45.80785127 -2.25180688 38.97898473 -2.24450874 32.15003395 C-2.24345911 29.63934546 -2.24584804 27.12865291 -2.2518692 24.61797142 C-2.25953859 21.19945884 -2.25497792 17.78117816 -2.24723816 14.3626709 C-2.25238172 13.36151324 -2.25752529 12.36035558 -2.26282471 11.32885981 C-2.25822592 10.41419616 -2.25362712 9.49953252 -2.24888897 8.55715179 C-2.24910634 7.76798292 -2.24932371 6.97881404 -2.24954766 6.16573095 C-1.96997867 3.73945609 -1.20848381 2.10551736 0 0 Z " fill="#143F9B" transform="translate(115,110)"/>
<path d="M0 0 C32.78255408 -0.06864545 65.56508955 -0.12151827 98.34769909 -0.15319599 C102.21674417 -0.15694817 106.08578911 -0.16083113 109.95483398 -0.16479492 C110.72510104 -0.16558185 111.4953681 -0.16636878 112.28897659 -0.16717956 C124.76601681 -0.18023851 137.24301563 -0.20389504 149.72003128 -0.23145839 C162.5197033 -0.259499 175.31935362 -0.27617341 188.11905509 -0.28226548 C196.01910155 -0.28638472 203.91903097 -0.29940159 211.81904141 -0.3237494 C217.87368135 -0.34146083 223.92822032 -0.34336903 229.98288918 -0.33932304 C232.46897224 -0.34015031 234.95505961 -0.34614319 237.44111633 -0.35761642 C240.82892555 -0.37248809 244.21622937 -0.36897274 247.60404968 -0.36076355 C248.59335014 -0.36950207 249.58265059 -0.3782406 250.60192984 -0.38724393 C259.15386701 -0.33102782 259.15386701 -0.33102782 263 3 C263 3.66 263 4.32 263 5 C262.08529922 4.51361526 262.08529922 4.51361526 261.15211964 4.01740456 C256.61604373 2.55330267 252.30509039 2.71229553 247.56608582 2.7215271 C246.50417363 2.7157347 245.44226144 2.7099423 244.3481701 2.70397437 C240.78441024 2.68694823 237.22077969 2.68409557 233.65698242 2.68115234 C231.10454998 2.67185599 228.55212059 2.66168776 225.99969482 2.65071106 C220.50166398 2.62903187 215.0036691 2.61342779 209.5056057 2.60334396 C201.55635714 2.58875401 193.60717337 2.5632163 185.65796284 2.53501268 C172.76068053 2.48955044 159.8633889 2.45293328 146.96606445 2.421875 C134.438053 2.39168713 121.91006436 2.35733577 109.38208008 2.31738281 C108.60976184 2.31492126 107.8374436 2.31245972 107.04172178 2.30992357 C103.16720028 2.29754893 99.29267904 2.2850924 95.41815794 2.27259517 C63.27880293 2.16903588 31.13942301 2.07982982 -1 2 C-0.67 1.34 -0.34 0.68 0 0 Z " fill="#2151AD" transform="translate(121,105)"/>
<path d="M0 0 C0.33 0 0.66 0 1 0 C1.97157268 7.95558582 2.20863113 15.85450863 2.31640625 23.86328125 C2.33718735 25.17225876 2.35796844 26.48123627 2.37937927 27.82987976 C2.42301494 30.58732005 2.46397173 33.34478119 2.50268555 36.10229492 C2.55177386 39.59831618 2.60533355 43.09424902 2.66066074 46.59017658 C2.7140452 49.9728564 2.76528736 53.35556637 2.81640625 56.73828125 C2.83514297 57.97411453 2.8538797 59.20994781 2.8731842 60.48323059 C2.92273689 63.98878209 2.96359932 67.49428888 3 71 C3.02294632 72.83502579 3.02294632 72.83502579 3.0463562 74.7071228 C3.05547028 75.88167023 3.06458435 77.05621765 3.07397461 78.26635742 C3.08391953 79.32102707 3.09386444 80.37569672 3.10411072 81.46232605 C3 84 3 84 2 86 C1.88433551 89.35630653 2.0989137 92.7088419 2.25 96.0625 C2.27707031 96.97966797 2.30414063 97.89683594 2.33203125 98.84179688 C2.84438888 110.50206493 6.99774865 121.40952802 14.953125 130.14453125 C16.89662849 131.90057082 18.87310066 133.47257422 21 135 C21.62648438 135.45890625 22.25296875 135.9178125 22.8984375 136.390625 C28.19440234 139.97891138 33.95190125 142.00990868 40 144 C40 144.33 40 144.66 40 145 C30.10676549 144.80601501 21.33314054 139.55154444 14.1875 132.9375 C5.06791966 123.11123631 -0.03098024 111.44662427 -0.625 98.05859375 C-0.66294678 97.29679306 -0.70089355 96.53499237 -0.73999023 95.75010681 C-1.21700496 84.86158311 -1.06903781 73.95814645 -1 63.0625 C-0.97341095 58.76172167 -0.95349019 54.46098545 -0.9375 50.16015625 C-0.92920166 49.18216568 -0.92090332 48.20417511 -0.91235352 47.19654846 C-0.90905029 46.29387741 -0.90574707 45.39120636 -0.90234375 44.46118164 C-0.89710693 43.66942032 -0.89187012 42.877659 -0.88647461 42.06190491 C-0.92013797 39.80026033 -0.92013797 39.80026033 -2 37 C-1.7834375 35.72189453 -1.7834375 35.72189453 -1.5625 34.41796875 C-0.83792088 30.01514421 -0.93657768 25.76374524 -1 21.3125 C-1.0574452 14.15012856 -0.91405333 7.11655809 0 0 Z " fill="#133080" transform="translate(44,307)"/>
<path d="M0 0 C0.70901783 -0.00256327 1.41803567 -0.00512655 2.14853889 -0.0077675 C4.53022979 -0.01271871 6.91129024 0.00380897 9.29292297 0.02018738 C10.99777715 0.02103336 12.70263242 0.02055907 14.40748596 0.01885986 C19.04155334 0.01799737 23.67538885 0.03566416 28.30940223 0.05658174 C33.15007341 0.07530627 37.99074961 0.07709564 42.83145142 0.08065796 C52.00059684 0.08999086 61.16963525 0.11462147 70.33873349 0.14470643 C80.77631613 0.17821173 91.21390381 0.1947267 101.65152681 0.20979273 C123.1249068 0.24116995 144.59819038 0.29395462 166.07148743 0.36076355 C166.07148743 0.69076355 166.07148743 1.02076355 166.07148743 1.36076355 C165.19296458 1.36223011 164.31444174 1.36369667 163.40929699 1.36520767 C142.0527784 1.40222679 120.69641914 1.46117625 99.34002972 1.54466629 C89.01231303 1.58450989 78.68467312 1.61687529 68.35688782 1.63175964 C59.35730013 1.64474864 50.35788101 1.6716426 41.35838825 1.71537662 C36.59126908 1.73805357 31.8243583 1.75367051 27.0571804 1.7526474 C22.57307898 1.75190445 18.08943932 1.76970726 13.60545731 1.80193138 C11.95709271 1.81047241 10.30867656 1.81215199 8.6602993 1.80656624 C6.41434464 1.79996744 4.16987705 1.81774462 1.92407227 1.84178162 C0.66582484 1.84546879 -0.59242258 1.84915596 -1.88879871 1.85295486 C-4.96516539 2.08859577 -4.96516539 2.08859577 -6.83187866 4.0617981 C-8.13082277 6.78488335 -8.31234437 8.64831826 -8.32723999 11.66319275 C-8.33977814 12.73728897 -8.35231628 13.81138519 -8.36523438 14.91802979 C-8.36379929 16.09119247 -8.3623642 17.26435516 -8.36088562 18.47306824 C-8.37107727 19.7123558 -8.38126892 20.95164337 -8.39176941 22.22848511 C-8.41678376 25.62289406 -8.42862484 29.0168703 -8.43462348 32.41133404 C-8.44400509 35.96015754 -8.47020827 39.50885579 -8.49462891 43.05760193 C-8.53830358 49.77585288 -8.56684453 56.49407954 -8.58995229 63.21242929 C-8.61699883 70.86178345 -8.66091063 78.51101168 -8.70624101 86.16027594 C-8.7991011 101.89370708 -8.87077552 117.62716194 -8.92851257 133.36076355 C-9.25851257 133.36076355 -9.58851257 133.36076355 -9.92851257 133.36076355 C-9.99854877 116.46270272 -10.05147424 99.56468709 -10.08394909 82.6665144 C-10.09942754 74.82065165 -10.12053563 66.97487901 -10.15483093 59.1290741 C-10.18470348 52.29181987 -10.20408046 45.45463088 -10.21077806 38.61731321 C-10.21469399 34.99593456 -10.22391699 31.37474259 -10.24570274 27.75342369 C-10.26980833 23.71384219 -10.27048396 19.67458662 -10.26908875 15.63493347 C-10.27987457 14.43012329 -10.2906604 13.22531311 -10.30177307 11.98399353 C-10.29764908 10.88602951 -10.29352509 9.78806549 -10.28927612 8.65682983 C-10.2920415 7.70093051 -10.29480688 6.74503119 -10.29765606 5.76016521 C-9.92851257 3.36076355 -9.92851257 3.36076355 -8.83899689 1.55230713 C-5.91284773 -0.27269307 -3.42590796 -0.00744223 0 0 Z " fill="#4290F8" transform="translate(167.9285125732422,148.6392364501953)"/>
<path d="M0 0 C2 2 2 2 2.24609566 4.15141487 C2.24425207 5.04924124 2.24240849 5.9470676 2.24050903 6.87210083 C2.24325836 7.90137695 2.24600769 8.93065308 2.24884033 9.99111938 C2.24164978 11.12471893 2.23445923 12.25831848 2.22705078 13.42626953 C2.22734283 14.61649719 2.22763489 15.80672485 2.22793579 17.03302002 C2.22677915 20.30146042 2.21673158 23.56973075 2.20278788 26.83813715 C2.19030636 30.25209982 2.18911206 33.66606564 2.18673706 37.08004761 C2.18051469 43.54696901 2.16409367 50.013823 2.14403808 56.48071468 C2.12170259 63.84215927 2.11069158 71.20360704 2.10064721 78.56507707 C2.07972807 93.71008898 2.04453743 108.85503776 2 124 C1.67 124 1.34 124 1 124 C0.67 135.22 0.34 146.44 0 158 C-2.26760118 153.46479764 -2.17641923 150.2156735 -1.99633789 145.31225586 C-1.96106774 143.98763556 -1.96106774 143.98763556 -1.92508507 142.63625526 C-1.8729487 140.70500335 -1.81625563 138.77387044 -1.75561333 136.8428669 C-1.58988673 131.52069761 -1.46127969 126.1975905 -1.32861328 120.87451172 C-1.29977145 119.74836865 -1.27092962 118.62222559 -1.2412138 117.46195698 C-0.92241261 104.6439759 -0.79581685 91.82509445 -0.68359375 79.00390625 C-0.67298542 77.83719769 -0.66237709 76.67048912 -0.6514473 75.46842575 C-0.5869472 68.3695201 -0.52655893 61.27058586 -0.46777344 54.17163086 C-0.41623901 48.02781286 -0.36126398 41.88402555 -0.30664062 35.74023438 C-0.20119684 23.8268495 -0.09933971 11.91343724 0 0 Z " fill="#275BB6" transform="translate(343,175)"/>
<path d="M0 0 C0.6290625 0.19335938 1.258125 0.38671875 1.90625 0.5859375 C4.59995272 1.4054073 7.29913351 2.20448616 10 3 C10.6909375 3.21269531 11.381875 3.42539062 12.09375 3.64453125 C16.79899756 4.98475545 21.11120562 5.14418667 25.99609375 4.97265625 C28 5 28 5 29 6 C31.378078 6.09764835 33.72707128 6.12997133 36.10560608 6.12025452 C37.23394817 6.12153615 37.23394817 6.12153615 38.38508505 6.12284368 C40.92479715 6.12450074 43.4644443 6.11897345 46.00415039 6.11352539 C47.81708271 6.11324354 49.63001514 6.11340121 51.44294739 6.1139679 C56.38075713 6.11425596 61.31854281 6.10835781 66.25634694 6.10139394 C71.41067843 6.09516186 76.56501042 6.09455672 81.71934509 6.09336853 C91.48704092 6.09025478 101.25472562 6.08204081 111.02241653 6.07201904 C122.13951812 6.06085925 133.25662022 6.05534779 144.37372601 6.05032361 C167.24915686 6.03985823 190.12457781 6.02225795 213 6 C213 6.66 213 7.32 213 8 C187.38354409 8.17719141 161.76703623 8.34286951 136.15041733 8.49477577 C124.25664839 8.56557523 112.36292564 8.64016694 100.46923828 8.72363281 C90.1048124 8.79635729 79.74037019 8.86202091 69.37584615 8.91914403 C63.88601881 8.94964894 58.39626545 8.98373126 52.90651703 9.02626419 C47.74220645 9.06616429 42.577927 9.09664218 37.41351509 9.11981392 C35.51558037 9.13000512 33.61766073 9.14367387 31.71977806 9.16103554 C29.13310147 9.18418393 26.54666202 9.19494155 23.9598999 9.20254517 C22.82760173 9.21712011 22.82760173 9.21712011 21.67242885 9.2319895 C17.9147285 9.22929001 15.19339037 9.04254271 12 7 C11.00484375 6.50242187 10.0096875 6.00484375 8.984375 5.4921875 C5.98958333 3.99479167 2.99479167 2.49739583 0 1 C0 0.67 0 0.34 0 0 Z " fill="#2666E6" transform="translate(70,445)"/>
<path d="M0 0 C0.33 0 0.66 0 1 0 C1.07008201 17.51543919 1.12298419 35.03083463 1.15543652 52.54638195 C1.17090522 60.67916234 1.19199477 68.81185561 1.22631836 76.94458008 C1.25622065 84.03309017 1.27557498 91.12153717 1.28226548 98.21010858 C1.28617635 101.96345188 1.29536738 105.71661468 1.31719017 109.46990013 C1.34135481 113.65994651 1.34196946 117.84967909 1.34057617 122.03979492 C1.351362 123.28416824 1.36214783 124.52854156 1.3732605 125.81062317 C1.36913651 126.95340729 1.36501251 128.09619141 1.36076355 129.27360535 C1.36352893 130.2645328 1.36629431 131.25546026 1.36914349 132.27641582 C0.92977668 135.51811597 -0.07587932 137.37316405 -2 140 C-6.25808133 142.74580541 -9.53893557 143.37032252 -14.55615234 143.34057617 C-16.47746475 143.34023628 -16.47746475 143.34023628 -18.43759155 143.33988953 C-19.82037716 143.32457312 -21.20315913 143.30892519 -22.5859375 143.29296875 C-24.01225334 143.28736754 -25.43857499 143.28309992 -26.86489868 143.28010559 C-30.60341567 143.268698 -34.34157826 143.23926675 -38.07995605 143.20599365 C-41.90091153 143.17520408 -45.72192475 143.16158135 -49.54296875 143.14648438 C-57.0288067 143.11439249 -64.51435353 143.06324646 -72 143 C-72 142.67 -72 142.34 -72 142 C-70.87699745 141.99120064 -70.87699745 141.99120064 -69.73130798 141.98222351 C-62.6548114 141.92417354 -55.57862897 141.85202702 -48.50244808 141.76428509 C-44.86501749 141.71967314 -41.22769653 141.68039742 -37.59008789 141.65356445 C-34.07557706 141.62743903 -30.56149019 141.586973 -27.04724312 141.53681374 C-25.06275677 141.51215872 -23.07810606 141.50212412 -21.0934906 141.49235535 C-10.61263944 141.41321148 -10.61263944 141.41321148 -2 136 C-1.0425748 132.45646942 -0.86633224 129.08350327 -0.84178162 125.42546082 C-0.8319928 124.31633331 -0.82220398 123.20720581 -0.81211853 122.06446838 C-0.80636307 120.85749802 -0.8006076 119.65052765 -0.79467773 118.40698242 C-0.78477814 117.12853455 -0.77487854 115.85008667 -0.76467896 114.53289795 C-0.73770488 111.0353915 -0.71665487 107.53787167 -0.69667697 104.0403192 C-0.67477102 100.38210485 -0.64740493 96.72393142 -0.62062073 93.06575012 C-0.57075606 86.14211745 -0.5257942 79.21846198 -0.48259836 72.29478484 C-0.4331727 64.41087413 -0.37827437 56.52700448 -0.32291877 48.64313352 C-0.20919432 32.42879357 -0.10233461 16.21441592 0 0 Z " fill="#092A8B" transform="translate(386,242)"/>
<path d="M0 0 C0 0.66 0 1.32 0 2 C1.34870666 1.98812133 1.34870666 1.98812133 2.72465992 1.97600269 C24.58167488 1.78453416 46.43876734 1.60967762 68.29606342 1.45341206 C78.86599782 1.37744135 89.43583225 1.29580554 100.00561523 1.20092773 C109.21600196 1.11826658 118.42639995 1.0461382 127.63696736 0.98676747 C132.51592533 0.95494724 137.39471273 0.91777883 142.27352333 0.86800575 C146.86246834 0.82135604 151.45129549 0.78875446 156.04042435 0.7670784 C157.72755295 0.75660532 159.41465824 0.74093283 161.10168648 0.71975899 C163.39981087 0.69168158 165.69728633 0.68207216 167.99555969 0.67720032 C169.28330449 0.66706059 170.57104929 0.65692087 171.89781666 0.64647388 C175 1 175 1 176.93777752 2.52017498 C177.28831094 3.00851724 177.63884436 3.49685949 178 4 C177.67 4.66 177.34 5.32 177 6 C176.01 5.01 176.01 5.01 175 4 C171.81553859 3.69372491 171.81553859 3.69372491 167.99087524 3.74603271 C167.26103279 3.74291273 166.53119033 3.73979275 165.77923143 3.73657823 C163.32100176 3.72856808 160.86301689 3.73493354 158.40478516 3.74121094 C156.64745437 3.73850236 154.89012472 3.73494219 153.13279724 3.73059082 C148.34971365 3.72144731 143.56671601 3.72501948 138.78363085 3.73134899 C133.7846557 3.73640045 128.78568808 3.73171978 123.78671265 3.72857666 C115.3883939 3.72493384 106.99011029 3.72974367 98.59179688 3.73925781 C88.87723332 3.75013589 79.16275375 3.74662275 69.44819224 3.735605 C61.1160916 3.72653266 52.78401627 3.72524681 44.45191228 3.73048234 C39.47188082 3.73360324 34.49188884 3.73400822 29.51185989 3.72740936 C24.82843402 3.72163757 20.1451165 3.72562979 15.46170235 3.73719788 C13.74117144 3.73984565 12.02063144 3.73907737 10.30010414 3.73467255 C7.95430975 3.7292201 5.60886412 3.73604753 3.26309204 3.74603271 C1.29250793 3.74716379 1.29250793 3.74716379 -0.71788597 3.74831772 C-3.76650294 3.98209475 -5.4548843 4.37993192 -8 6 C-6.98565881 3.46414701 -6.34981128 2.21863205 -4 0.75 C-2 0 -2 0 0 0 Z " fill="#2E6ED3" transform="translate(165,146)"/>
<path d="M0 0 C0.99 0.99 0.99 0.99 2 2 C1.40832031 1.86722656 0.81664062 1.73445312 0.20703125 1.59765625 C-0.58316406 1.42105469 -1.37335938 1.24445313 -2.1875 1.0625 C-2.96480469 0.88847656 -3.74210937 0.71445313 -4.54296875 0.53515625 C-5.35378906 0.35855469 -6.16460937 0.18195313 -7 0 C-7.75796875 -0.18046875 -8.5159375 -0.3609375 -9.296875 -0.546875 C-20.97263502 -2.50408333 -33.32631771 -1.79902112 -43.5234375 4.578125 C-45.82187507 6.27331815 -47.91599867 8.04884337 -50 10 C-50.56460938 10.52335938 -51.12921875 11.04671875 -51.7109375 11.5859375 C-61.32884193 21.59441673 -62.08131865 34.89165112 -63 48 C-63.33 48 -63.66 48 -64 48 C-64.63328676 32.00950925 -63.20670572 20.40260203 -52 8 C-37.45335426 -4.62583262 -17.77626049 -8.29760711 0 0 Z " fill="#2150AB" transform="translate(270,207)"/>
<path d="M0 0 C2 2 2 2 2.24723816 4.94216919 C2.24581314 6.20407074 2.24438812 7.46597229 2.24291992 8.76611328 C2.24481827 9.46246887 2.24671661 10.15882446 2.24867249 10.87628174 C2.25239151 13.19107149 2.24164568 15.50555029 2.23046875 17.8203125 C2.2292756 19.43822188 2.22882407 21.05613195 2.2290802 22.67404175 C2.22751248 26.07879939 2.21921216 29.48345233 2.20581055 32.88818359 C2.18900963 37.20692398 2.18499083 41.52554726 2.18575573 45.84431648 C2.18548042 49.19567949 2.17993925 52.54701794 2.17275429 55.89837265 C2.16961485 57.48723032 2.16761154 59.07609073 2.16686058 60.66495132 C2.15650212 71.14745368 1.77304683 81.54555166 1 92 C0.67 92 0.34 92 0 92 C-0.92216599 71.41803988 -1.11055989 50.85078397 -1.125 30.25 C-1.12749756 28.98438232 -1.12999512 27.71876465 -1.13256836 26.41479492 C-1.13845285 22.78171035 -1.13697182 19.14871049 -1.1328125 15.515625 C-1.13479645 14.41273132 -1.1367804 13.30983765 -1.13882446 12.17352295 C-1.13571259 11.15494202 -1.13260071 10.13636108 -1.12939453 9.08691406 C-1.12859894 8.19748108 -1.12780334 7.3080481 -1.12698364 6.3916626 C-1.00662825 4.12483927 -0.63549362 2.17303413 0 0 Z " fill="#1643A0" transform="translate(44,214)"/>
<path d="M0 0 C0.33 0 0.66 0 1 0 C1.94359095 7.86314094 2.23647151 15.67965376 2.38671875 23.59375 C2.41224319 24.86222778 2.43776764 26.13070557 2.46406555 27.43762207 C2.51578985 30.10000269 2.56557905 32.76234378 2.61254883 35.42480469 C2.67347162 38.83914747 2.74767756 42.25306896 2.82492352 45.66707611 C2.89614791 48.93413525 2.95301239 52.2014456 3.01171875 55.46875 C3.04077805 56.69573608 3.06983734 57.92272217 3.09977722 59.18688965 C3.11672134 60.31566528 3.13366547 61.44444092 3.15112305 62.60742188 C3.17031296 63.60318237 3.18950287 64.59894287 3.20927429 65.62487793 C3 68 3 68 1 70 C1 61.42 1 52.84 1 44 C0.34 43.67 -0.32 43.34 -1 43 C-1.78834468 39.91828897 -2.0995709 37.53914 -1.51953125 34.3984375 C-0.84809843 30.00635815 -0.93682697 25.746249 -1 21.3125 C-1.0574452 14.15012856 -0.91405333 7.11655809 0 0 Z " fill="#225ED4" transform="translate(44,307)"/>
<path d="M0 0 C0.33 0 0.66 0 1 0 C0.61413434 11.57596983 -4.73475253 20.57451386 -12.66015625 28.81640625 C-21.83259982 37.37633272 -33.45765908 42.36225385 -46 43 C-46.33 42.34 -46.66 41.68 -47 41 C-46.03320312 40.84144531 -45.06640625 40.68289063 -44.0703125 40.51953125 C-29.48269251 37.97397747 -17.24497948 32.4382187 -8.125 20.1875 C-4.05291236 13.97372476 -1.70664082 7.19466227 0 0 Z " fill="#132F7D" transform="translate(456,411)"/>
<path d="M0 0 C0.33 0 0.66 0 1 0 C1.03758423 1.15786011 1.03758423 1.15786011 1.07592773 2.33911133 C1.19184007 5.83041181 1.31458824 9.32143922 1.4375 12.8125 C1.47681641 14.02744141 1.51613281 15.24238281 1.55664062 16.49414062 C1.59853516 17.65751953 1.64042969 18.82089844 1.68359375 20.01953125 C1.72025146 21.09307861 1.75690918 22.16662598 1.79467773 23.27270508 C1.89541847 26.09311553 1.89541847 26.09311553 3 29 C3.09357692 30.85227252 3.12993909 32.7078718 3.125 34.5625 C3.12757812 35.53316406 3.13015625 36.50382812 3.1328125 37.50390625 C3 40 3 40 2 42 C1.9283265 44.55157655 1.90691558 47.07472971 1.9375 49.625 C1.94426758 50.68460937 1.94426758 50.68460937 1.95117188 51.765625 C1.96296125 53.51045275 1.98089676 55.255237 2 57 C1.67 57 1.34 57 1 57 C1 55.35 1 53.7 1 52 C0.34 51.67 -0.32 51.34 -1 51 C-1.02493457 45.5048047 -1.04296987 40.00964318 -1.05493164 34.5144043 C-1.0599245 32.6494896 -1.06672112 30.78457874 -1.07543945 28.91967773 C-1.16597155 9.03989442 -1.16597155 9.03989442 0 0 Z " fill="#113893" transform="translate(44,351)"/>
<path d="M0 0 C0 0.33 0 0.66 0 1 C-23.52621382 3.31134732 -47.43591827 2.13213579 -71 1 C-71 0.67 -71 0.34 -71 0 C-47.24297539 -1.07029011 -23.75117242 -1.23724589 0 0 Z " fill="#0D2D8A" transform="translate(233,384)"/>
<path d="M0 0 C0 0.66 0 1.32 0 2 C20.79 2 41.58 2 63 2 C61 4 61 4 58.19381714 4.20927429 C56.39800705 4.18048943 56.39800705 4.18048943 54.56591797 4.15112305 C53.90547989 4.14326782 53.24504181 4.1354126 52.56459045 4.12731934 C50.37352156 4.0986664 48.18300435 4.05540299 45.9921875 4.01171875 C44.46722552 3.98807689 42.94225144 3.96520462 41.41726685 3.94306946 C38.21423695 3.89447004 35.01141965 3.83911436 31.80859375 3.77856445 C27.72013881 3.70143716 23.63161442 3.63685945 19.54287529 3.57690716 C16.38908551 3.52993977 13.23538799 3.47823448 10.08169937 3.42493629 C8.57555867 3.39965711 7.06940135 3.37534818 5.56322861 3.3520565 C-8.90584172 3.12064471 -8.90584172 3.12064471 -16 2 C-16 1.67 -16 1.34 -16 1 C-10.62915894 0.31798844 -5.41499441 -0.11521265 0 0 Z " fill="#2054C1" transform="translate(314,383)"/>
<path d="M0 0 C1 3 1 3 0.1796875 5.26953125 C-6.02290473 17.35901491 -13.55004954 24.10136629 -26.14453125 29.09765625 C-29.69448568 30.21946128 -32.32432583 30.41769025 -36 30 C-33.00995755 28.41088653 -30.02565914 27.30714327 -26.8125 26.25 C-14.25751559 21.7027886 -6.46723624 13.90432432 -0.84765625 1.90625 C-0.56792969 1.2771875 -0.28820312 0.648125 0 0 Z " fill="#1B48A3" transform="translate(292,259)"/>
<path d="M0 0 C2.4145175 2.4145175 3.04915725 4.49726109 4.25 7.6875 C8.69838982 18.46134586 15.80807349 24.36057268 26.48828125 29.10546875 C28.30533199 29.79291423 30.1500893 30.40663242 32 31 C32 31.33 32 31.66 32 32 C25.86444604 32.78660948 21.89395879 30.37243955 17 27 C9.415682 21.06346537 2.80862869 14.4472056 0 5 C-0.125 2.1875 -0.125 2.1875 0 0 Z " fill="#1B49A7" transform="translate(207,256)"/>
<path d="M0 0 C10.33114992 5.48842339 16.99988545 13.77351273 20.875 24.75 C22.59922076 31.06205964 22.25233646 37.51401832 22 44 C21.67 44 21.34 44 21 44 C20.77957031 42.15148437 20.77957031 42.15148437 20.5546875 40.265625 C18.88815739 27.54337273 16.45712208 14.8366881 5.859375 6.26953125 C5.16328125 5.78871094 4.4671875 5.30789062 3.75 4.8125 C1.609375 3.33203125 1.609375 3.33203125 0 2 C0 1.34 0 0.68 0 0 Z " fill="#204FAB" transform="translate(273,209)"/>
<path d="M0 0 C0.6290625 0.19335938 1.258125 0.38671875 1.90625 0.5859375 C4.59995272 1.4054073 7.29913351 2.20448616 10 3 C10.6909375 3.21269531 11.381875 3.42539062 12.09375 3.64453125 C16.77533167 4.97801455 20.9434606 5.08998134 25.80078125 4.77734375 C28 5 28 5 29.79296875 6.50390625 C30.19128906 6.99761719 30.58960937 7.49132812 31 8 C28.58388467 8.22237877 26.1682283 8.42832339 23.75 8.625 C22.72712891 8.72167969 22.72712891 8.72167969 21.68359375 8.8203125 C17.78091645 9.12343307 15.30588449 9.11359828 12 7 C11.00484375 6.50242187 10.0096875 6.00484375 8.984375 5.4921875 C5.98958333 3.99479167 2.99479167 2.49739583 0 1 C0 0.67 0 0.34 0 0 Z " fill="#215AD1" transform="translate(70,445)"/>
<path d="M0 0 C2.23550088 4.47100176 2.23550088 4.47100176 2.0625 8.0625 C1.78408463 11.90432805 1.78408463 11.90432805 3 15 C2.66666667 16.66666667 2.33333333 18.33333333 2 20 C2.10562419 21.83786083 2.274192 23.67300804 2.5 25.5 C2.97112884 29.31186062 2.85827248 32.25993672 2 36 C1.9629721 37.6662553 1.95240038 39.33401319 2 41 C1.34 41 0.68 41 0 41 C0 27.47 0 13.94 0 0 Z " fill="#387FEB" transform="translate(45,160)"/>
<path d="M0 0 C1.74120117 0.00676758 1.74120117 0.00676758 3.51757812 0.01367188 C6.36593934 0.02539353 9.21419222 0.0418024 12.0625 0.0625 C12.0625 1.0525 12.0625 2.0425 12.0625 3.0625 C-10.73877986 3.26888953 -10.73877986 3.26888953 -19.9375 2.0625 C-19.9375 1.7325 -19.9375 1.4025 -19.9375 1.0625 C-13.29708878 -0.16149452 -6.73528303 -0.04977753 0 0 Z " fill="#133796" transform="translate(149.9375,382.9375)"/>
<path d="M0 0 C0 0.66 0 1.32 0 2 C12.21 2 24.42 2 37 2 C37 2.33 37 2.66 37 3 C35.77893555 3.01981934 34.55787109 3.03963867 33.29980469 3.06005859 C28.76720646 3.13616123 24.2349273 3.22487161 19.70263672 3.31738281 C17.7414378 3.35565327 15.78016916 3.39050954 13.81884766 3.421875 C10.99877003 3.4675674 8.17917162 3.525555 5.359375 3.5859375 C4.48319519 3.59748871 3.60701538 3.60903992 2.70428467 3.62094116 C1.47346161 3.6507457 1.47346161 3.6507457 0.21777344 3.68115234 C-0.50170471 3.69447601 -1.22118286 3.70779968 -1.96246338 3.7215271 C-4.30155476 4.0412139 -5.95527237 4.84589216 -8 6 C-6.98565881 3.46414701 -6.34981128 2.21863205 -4 0.75 C-2 0 -2 0 0 0 Z " fill="#2B66C8" transform="translate(165,146)"/>
<path d="M0 0 C0.66 0.99 1.32 1.98 2 3 C3.85547512 5.52344617 5.15764081 6.82250808 8.26171875 7.4765625 C10.51019216 7.72364749 12.74037615 7.90343488 15 8 C15 8.66 15 9.32 15 10 C18.63 10 22.26 10 26 10 C26 10.33 26 10.66 26 11 C9.09596413 12.0735426 9.09596413 12.0735426 3.95703125 9.44140625 C2.06416143 7.72782464 0.4716467 6.08261916 -1 4 C-0.67 2.68 -0.34 1.36 0 0 Z " fill="#1945A9" transform="translate(115,375)"/>
<path d="M0 0 C0.33 0 0.66 0 1 0 C2.30794501 10.34677927 2.61955346 20.6753467 1 31 C0.67 31 0.34 31 0 31 C-1.38297872 9.27659574 -1.38297872 9.27659574 0 0 Z " fill="#10368F" transform="translate(44,307)"/>
<path d="M0 0 C0.33 0 0.66 0 1 0 C1.16965655 2.3539847 1.3357935 4.70813384 1.5 7.0625 C1.5928125 8.37347656 1.685625 9.68445313 1.78125 11.03515625 C1.9834902 14.70075995 2.0381804 18.32990952 2 22 C1.34 22 0.68 22 0 22 C-0.33 22.66 -0.66 23.32 -1 24 C-1.09579384 15.92138585 -1.12513633 8.01659634 0 0 Z " fill="#255AB5" transform="translate(343,153)"/>
<path d="M0 0 C2 2 2 2 2.13525391 4.98095703 C2.08288574 6.22731934 2.03051758 7.47368164 1.9765625 8.7578125 C1.95153656 9.42086395 1.92651062 10.08391541 1.90072632 10.76705933 C1.81848733 12.88689015 1.72191635 15.00579437 1.625 17.125 C1.56676418 18.56115994 1.50946081 19.99735802 1.453125 21.43359375 C1.31290458 24.95623602 1.159824 28.4781866 1 32 C0.67 32 0.34 32 0 32 C-0.72507919 25.16353908 -1.10608768 18.37147513 -1.125 11.5 C-1.12951172 10.81808594 -1.13402344 10.13617188 -1.13867188 9.43359375 C-1.12886261 6.14422073 -1.01094591 3.14516504 0 0 Z " fill="#123789" transform="translate(44,214)"/>
<path d="M0 0 C0.33 0 0.66 0 1 0 C1.33 2.64 1.66 5.28 2 8 C2.33 8 2.66 8 3 8 C3 10.97 3 13.94 3 17 C2.01 17.33 1.02 17.66 0 18 C0 12.06 0 6.12 0 0 Z " fill="#2660C5" transform="translate(342,282)"/>
<path d="M0 0 C-3.26987035 0.22587773 -6.54079281 0.42766605 -9.8125 0.625 C-11.2056543 0.72167969 -11.2056543 0.72167969 -12.62695312 0.8203125 C-13.51962891 0.871875 -14.41230469 0.9234375 -15.33203125 0.9765625 C-16.56530151 1.05511475 -16.56530151 1.05511475 -17.82348633 1.13525391 C-20 1 -20 1 -23 -1 C-6.19090909 -4.12727273 -6.19090909 -4.12727273 0 0 Z " fill="#0D2985" transform="translate(257,385)"/>
<path d="M0 0 C0.99 0.33 1.98 0.66 3 1 C2.9278125 1.64066406 2.855625 2.28132812 2.78125 2.94140625 C2.23892456 7.99557809 1.88951733 12.91779721 2 18 C1.34 17.67 0.68 17.34 0 17 C0 11.39 0 5.78 0 0 Z " fill="#3C85ED" transform="translate(45,137)"/>
<path d="M0 0 C0 4.95 0 9.9 0 15 C-0.33 15 -0.66 15 -1 15 C-1 13.35 -1 11.7 -1 10 C-1.66 9.67 -2.32 9.34 -3 9 C-3 6.36 -3 3.72 -3 1 C-1 0 -1 0 0 0 Z " fill="#1A47AC" transform="translate(46,393)"/>
<path d="M0 0 C1.1875 1.6875 1.1875 1.6875 2 4 C0.42536072 7.48078157 -0.78882551 8.85921701 -4 11 C-7.1875 11.125 -7.1875 11.125 -10 11 C-9.443125 10.7525 -8.88625 10.505 -8.3125 10.25 C-5.52479349 8.74313162 -3.30653497 7.1818574 -1 5 C-0.12056596 2.36539052 -0.12056596 2.36539052 0 0 Z " fill="#1B43A0" transform="translate(385,373)"/>
<path d="M0 0 C0.66 0.33 1.32 0.66 2 1 C0.37660195 2.70884005 -1.29319053 4.37446717 -3 6 C-3.66 6 -4.32 6 -5 6 C-5.28875 6.639375 -5.5775 7.27875 -5.875 7.9375 C-7 10 -7 10 -9 11 C-7.59928507 5.70841026 -4.14512755 3.22521956 0 0 Z " fill="#316AC2" transform="translate(62,51)"/>
<path d="M0 0 C0 0.66 0 1.32 0 2 C-4.95 1.67 -9.9 1.34 -15 1 C-15 0.67 -15 0.34 -15 0 C-9.76528314 -0.75612577 -5.22745859 -1.2063366 0 0 Z " fill="#10318E" transform="translate(313,384)"/>
<path d="M0 0 C1.32 0 2.64 0 4 0 C4 0.66 4 1.32 4 2 C4.99 2 5.98 2 7 2 C7 2.66 7 3.32 7 4 C4.36 3.67 1.72 3.34 -1 3 C-0.67 2.01 -0.34 1.02 0 0 Z " fill="#1C43A0" transform="translate(83,450)"/>
<path d="M0 0 C0.33 0 0.66 0 1 0 C1 3.63 1 7.26 1 11 C-1 8 -1 8 -2 5 C-1.0625 2.3125 -1.0625 2.3125 0 0 Z " fill="#183B90" transform="translate(44,339)"/>
<path d="M0 0 C1.0625 1.8125 1.0625 1.8125 2 4 C1.67 4.99 1.34 5.98 1 7 C0.34 5.02 -0.32 3.04 -1 1 C-0.67 0.67 -0.34 0.34 0 0 Z " fill="#2F59B4" transform="translate(44,417)"/>
<path d="M0 0 C4 1 4 1 4 1 Z " fill="#2D58B9" transform="translate(325,456)"/>
<path d="M0 0 C4 1 4 1 4 1 Z " fill="#2D58B9" transform="translate(203,456)"/>
<path d="M0 0 C3 1 3 1 3 1 Z " fill="#2E58B8" transform="translate(364,456)"/>
<path d="M0 0 C3 1 3 1 3 1 Z " fill="#2D57B8" transform="translate(349,456)"/>
<path d="" fill="#417EDC" transform="translate(0,0)"/>
<path d="" fill="#4381DF" transform="translate(0,0)"/>
<path d="M0 0 C2 1 2 1 2 1 Z " fill="#2D55B4" transform="translate(389,456)"/>
<path d="M0 0 C2 1 2 1 2 1 Z " fill="#2E56B6" transform="translate(381,456)"/>
<path d="M0 0 C2 1 2 1 2 1 Z " fill="#2C57B8" transform="translate(373,456)"/>
<path d="M0 0 C2 1 2 1 2 1 Z " fill="#2E58B7" transform="translate(333,456)"/>
<path d="M0 0 C2 1 2 1 2 1 Z " fill="#2D57B9" transform="translate(309,456)"/>
<path d="M0 0 C2 1 2 1 2 1 Z " fill="#2C57B8" transform="translate(293,456)"/>
<path d="M0 0 C2 1 2 1 2 1 Z " fill="#2C56BA" transform="translate(285,456)"/>
<path d="M0 0 C2 1 2 1 2 1 Z " fill="#2E58B9" transform="translate(269,456)"/>
<path d="M0 0 C2 1 2 1 2 1 Z " fill="#2D57B8" transform="translate(245,456)"/>
<path d="M0 0 C2 1 2 1 2 1 Z " fill="#2C58B9" transform="translate(211,456)"/>
<path d="M0 0 C2 1 2 1 2 1 Z " fill="#2D58B9" transform="translate(181,456)"/>
<path d="M0 0 C2 1 2 1 2 1 Z " fill="#2F57B7" transform="translate(149,456)"/>
<path d="M0 0 C2 1 2 1 2 1 Z " fill="#2D57B8" transform="translate(140,456)"/>
<path d="M0 0 C2 1 2 1 2 1 Z " fill="#2C57B7" transform="translate(132,456)"/>
<path d="M0 0 C2 1 2 1 2 1 Z " fill="#2D59B8" transform="translate(124,456)"/>
<path d="M0 0 C2 1 2 1 2 1 Z " fill="#2E58B7" transform="translate(117,456)"/>
<path d="M0 0 C2 1 2 1 2 1 Z " fill="#2E55AE" transform="translate(83,454)"/>
<path d="" fill="#315AB4" transform="translate(0,0)"/>
<path d="" fill="#366CD1" transform="translate(0,0)"/>
<path d="" fill="#3A74D7" transform="translate(0,0)"/>
<path d="" fill="#3A76D9" transform="translate(0,0)"/>
<path d="" fill="#3E73CE" transform="translate(0,0)"/>
<path d="" fill="#3D79DA" transform="translate(0,0)"/>
<path d="" fill="#3F7CDC" transform="translate(0,0)"/>
<path d="" fill="#465175" transform="translate(0,0)"/>
<path d="" fill="#3F5176" transform="translate(0,0)"/>
<path d="" fill="#3A5082" transform="translate(0,0)"/>
<path d="" fill="#47556F" transform="translate(0,0)"/>
<path d="" fill="#3D517C" transform="translate(0,0)"/>
<path d="" fill="#475572" transform="translate(0,0)"/>
<path d="" fill="#375089" transform="translate(0,0)"/>
<path d="" fill="#3F5180" transform="translate(0,0)"/>
<path d="" fill="#3C5282" transform="translate(0,0)"/>
<path d="" fill="#3D5283" transform="translate(0,0)"/>
<path d="" fill="#3B5286" transform="translate(0,0)"/>
<path d="" fill="#3B538A" transform="translate(0,0)"/>
<path d="" fill="#445478" transform="translate(0,0)"/>
<path d="" fill="#3158A7" transform="translate(0,0)"/>
<path d="" fill="#2D56B1" transform="translate(0,0)"/>
<path d="" fill="#2D56B3" transform="translate(0,0)"/>
<path d="" fill="#2D57B8" transform="translate(0,0)"/>
<path d="" fill="#2D58B8" transform="translate(0,0)"/>
<path d="" fill="#2E59BB" transform="translate(0,0)"/>
<path d="" fill="#2E59B9" transform="translate(0,0)"/>
<path d="" fill="#2D56B8" transform="translate(0,0)"/>
<path d="" fill="#2C57B9" transform="translate(0,0)"/>
<path d="" fill="#2E59B8" transform="translate(0,0)"/>
<path d="" fill="#2D57BA" transform="translate(0,0)"/>
<path d="" fill="#2B57BA" transform="translate(0,0)"/>
<path d="" fill="#2956B8" transform="translate(0,0)"/>
<path d="" fill="#2E58BA" transform="translate(0,0)"/>
<path d="" fill="#2B57B7" transform="translate(0,0)"/>
<path d="" fill="#2C56B9" transform="translate(0,0)"/>
<path d="" fill="#2D56B8" transform="translate(0,0)"/>
<path d="" fill="#2D58B9" transform="translate(0,0)"/>
<path d="" fill="#2D58BC" transform="translate(0,0)"/>
<path d="" fill="#2E58BB" transform="translate(0,0)"/>
<path d="" fill="#2C58B8" transform="translate(0,0)"/>
<path d="" fill="#2E59BB" transform="translate(0,0)"/>
<path d="" fill="#2D57B8" transform="translate(0,0)"/>
<path d="" fill="#2E59BB" transform="translate(0,0)"/>
<path d="" fill="#2E56B7" transform="translate(0,0)"/>
<path d="" fill="#2C58B8" transform="translate(0,0)"/>
<path d="" fill="#2E57B7" transform="translate(0,0)"/>
<path d="" fill="#3357A0" transform="translate(0,0)"/>
<path d="" fill="#2E57B2" transform="translate(0,0)"/>
<path d="" fill="#2F55B0" transform="translate(0,0)"/>
<path d="" fill="#2F58B6" transform="translate(0,0)"/>
<path d="" fill="#2E55B0" transform="translate(0,0)"/>
<path d="" fill="#3055AF" transform="translate(0,0)"/>
<path d="" fill="#3056AF" transform="translate(0,0)"/>
<path d="" fill="#2C56B2" transform="translate(0,0)"/>
<path d="" fill="#2F56AD" transform="translate(0,0)"/>
<path d="" fill="#2E58B4" transform="translate(0,0)"/>
<path d="" fill="#41598F" transform="translate(0,0)"/>
<path d="" fill="#2F5CB5" transform="translate(0,0)"/>
<path d="" fill="#425A92" transform="translate(0,0)"/>
<path d="" fill="#3059B4" transform="translate(0,0)"/>
<path d="" fill="#2D5DBA" transform="translate(0,0)"/>
<path d="" fill="#325AB6" transform="translate(0,0)"/>
<path d="" fill="#405B96" transform="translate(0,0)"/>
<path d="" fill="#2F5AB6" transform="translate(0,0)"/>
<path d="" fill="#325DBD" transform="translate(0,0)"/>
<path d="" fill="#415C9A" transform="translate(0,0)"/>
<path d="" fill="#3466CF" transform="translate(0,0)"/>
<path d="" fill="#3266CF" transform="translate(0,0)"/>
<path d="" fill="#3362C2" transform="translate(0,0)"/>
<path d="" fill="#3266D0" transform="translate(0,0)"/>
<path d="" fill="#2E65CE" transform="translate(0,0)"/>
<path d="" fill="#3666CB" transform="translate(0,0)"/>
<path d="" fill="#3A65CA" transform="translate(0,0)"/>
<path d="" fill="#3564C5" transform="translate(0,0)"/>
<path d="" fill="#4263A9" transform="translate(0,0)"/>
<path d="" fill="#3466C4" transform="translate(0,0)"/>
<path d="" fill="#4364AB" transform="translate(0,0)"/>
<path d="" fill="#3467C4" transform="translate(0,0)"/>
<path d="" fill="#3B69CF" transform="translate(0,0)"/>
<path d="" fill="#3769C6" transform="translate(0,0)"/>
<path d="" fill="#3C6FCC" transform="translate(0,0)"/>
<path d="" fill="#3A6FCB" transform="translate(0,0)"/>
<path d="" fill="#4B6DB0" transform="translate(0,0)"/>
<path d="" fill="#3B72CE" transform="translate(0,0)"/>
<path d="" fill="#3C78DA" transform="translate(0,0)"/>
<path d="" fill="#3C7ADD" transform="translate(0,0)"/>
<path d="" fill="#4378DA" transform="translate(0,0)"/>
<path d="" fill="#3E74CE" transform="translate(0,0)"/>
<path d="" fill="#3E71CE" transform="translate(0,0)"/>
<path d="" fill="#3E73CE" transform="translate(0,0)"/>
<path d="" fill="#407CDC" transform="translate(0,0)"/>
<path d="" fill="#427AD5" transform="translate(0,0)"/>
<path d="" fill="#4279D4" transform="translate(0,0)"/>
<path d="" fill="#5077B5" transform="translate(0,0)"/>
<path d="" fill="#427BD4" transform="translate(0,0)"/>
<path d="" fill="#437BDE" transform="translate(0,0)"/>
<path d="" fill="#457CE1" transform="translate(0,0)"/>
<path d="" fill="#4179D3" transform="translate(0,0)"/>
<path d="" fill="#417DDE" transform="translate(0,0)"/>
<path d="" fill="#4380E1" transform="translate(0,0)"/>
<path d="" fill="#437FE0" transform="translate(0,0)"/>
<path d="" fill="#427CE0" transform="translate(0,0)"/>
<path d="" fill="#5279B6" transform="translate(0,0)"/>
<path d="" fill="#447BD2" transform="translate(0,0)"/>
<path d="" fill="#4583E1" transform="translate(0,0)"/>
<path d="" fill="#4586E4" transform="translate(0,0)"/>
<path d="" fill="#5776A6" transform="translate(0,0)"/>
<path d="" fill="#4680D8" transform="translate(0,0)"/>
<path d="" fill="#4889E4" transform="translate(0,0)"/>
<path d="" fill="#557DB7" transform="translate(0,0)"/>
<path d="" fill="#4789E7" transform="translate(0,0)"/>
<path d="" fill="#457FD8" transform="translate(0,0)"/>
<path d="" fill="#4581D7" transform="translate(0,0)"/>
<path d="" fill="#4781D6" transform="translate(0,0)"/>
<path d="" fill="#4C8DE9" transform="translate(0,0)"/>
<path d="" fill="#5780BB" transform="translate(0,0)"/>
<path d="" fill="#5980B9" transform="translate(0,0)"/>
<path d="" fill="#5B82B5" transform="translate(0,0)"/>
<path d="" fill="#4E8CD9" transform="translate(0,0)"/>
<path d="" fill="#518AD8" transform="translate(0,0)"/>
<path d="" fill="#5A82B3" transform="translate(0,0)"/>
<path d="" fill="#568AD4" transform="translate(0,0)"/>
<path d="" fill="#4C88DD" transform="translate(0,0)"/>
<path d="" fill="#5D7FAA" transform="translate(0,0)"/>
<path d="" fill="#548DD5" transform="translate(0,0)"/>
<path d="" fill="#518ADB" transform="translate(0,0)"/>
<path d="" fill="#558EDB" transform="translate(0,0)"/>
<path d="" fill="#528BD8" transform="translate(0,0)"/>
<path d="" fill="#508CDC" transform="translate(0,0)"/>
<path d="" fill="#538CD7" transform="translate(0,0)"/>
<path d="" fill="#518DDE" transform="translate(0,0)"/>
<path d="" fill="#518DE0" transform="translate(0,0)"/>
<path d="" fill="#538EDE" transform="translate(0,0)"/>
<path d="" fill="#5B81AC" transform="translate(0,0)"/>
<path d="" fill="#5E7FA5" transform="translate(0,0)"/>
<path d="" fill="#607DA1" transform="translate(0,0)"/>
<path d="" fill="#61788D" transform="translate(0,0)"/>
</svg>
