<svg width="73" height="32" viewBox="0 0 73 32" fill="none" xmlns="http://www.w3.org/2000/svg">
<g clip-path="url(#clip0_185_1827)">
<mask id="mask0_185_1827" style="mask-type:luminance" maskUnits="userSpaceOnUse" x="0" y="0" width="73" height="32">
<path d="M72.6446 0.419922H0.467285V31.58H72.6446V0.419922Z" fill="white"/>
</mask>
<g mask="url(#mask0_185_1827)">
<path d="M57.6077 0.419922C69.0098 0.419922 72.6446 4.18614 72.6446 16C72.6446 27.8138 69.0098 31.58 57.6077 31.58C46.2057 31.58 42.5708 27.8148 42.5708 16C42.5708 4.1851 46.2057 0.419922 57.6077 0.419922Z" fill="#F0F1F2"/>
<mask id="mask1_185_1827" style="mask-type:luminance" maskUnits="userSpaceOnUse" x="42" y="0" width="31" height="32">
<path d="M57.6077 0.419922C69.0098 0.419922 72.6446 4.18614 72.6446 16C72.6446 27.8138 69.0098 31.58 57.6077 31.58C46.2057 31.58 42.5708 27.8138 42.5708 16C42.5708 4.18614 46.2057 0.419922 57.6077 0.419922Z" fill="white"/>
</mask>
<g mask="url(#mask1_185_1827)">
<path d="M57.6077 31.58H42.5708V16C50.8752 16 57.6077 22.9757 57.6077 31.58Z" fill="#114B47"/>
<path d="M58.1963 0.419922C62.0869 0.731524 65.1514 4.09888 65.1514 8.20993C65.1514 12.321 62.2282 15.5326 58.466 15.974C66.3714 15.5128 72.6447 8.72615 72.6447 0.419922H58.1963Z" fill="#1B7A5F"/>
<path d="M50.0642 8.20993C50.0642 4.09888 53.1287 0.731524 57.0193 0.419922H42.5708V16H57.0193C53.1287 15.6883 50.0642 12.321 50.0642 8.20993Z" fill="#1AAA5B"/>
</g>
<path fill-rule="evenodd" clip-rule="evenodd" d="M34.4031 7.28832C35.5792 7.28832 35.5792 5.43848 34.4031 5.43848C33.227 5.43848 33.227 7.28832 34.4031 7.28832Z" fill="#114B47"/>
<path fill-rule="evenodd" clip-rule="evenodd" d="M6.5144 7.28046C7.69051 7.28046 7.69051 5.43164 6.5144 5.43164C5.3383 5.43164 5.3383 7.28046 6.5144 7.28046Z" fill="#114B47"/>
<path fill-rule="evenodd" clip-rule="evenodd" d="M35.0607 8.96017C35.0607 10.6604 35.0607 12.3659 35.0607 14.0672C35.0622 14.3501 34.9554 14.622 34.7635 14.8233C34.5716 15.0247 34.3103 15.139 34.0371 15.1412H30.8811V12.3368C30.8811 9.32991 27.3216 7.63791 25.1952 9.88453C24.005 11.1413 24.2138 12.4936 24.2138 14.1098C24.2167 14.744 24.4621 15.3514 24.8962 15.7989C25.3304 16.2466 25.9181 16.4981 26.5309 16.4987H29.6156L29.3296 17.098C28.9895 17.8105 28.3151 18.1865 27.5585 18.1865H25.4471C25.2806 18.6201 25.2806 19.1032 25.4471 19.5368H27.5625C29.0958 19.5368 30.4927 18.361 30.8269 16.8176L30.8971 16.4935H34.0441C34.351 16.4922 34.6546 16.4282 34.9376 16.3053C35.2206 16.1824 35.4775 16.0029 35.6935 15.7772C35.9094 15.5514 36.0802 15.2839 36.1962 14.9897C36.3121 14.6956 36.371 14.3807 36.3692 14.0631V8.96017C35.9491 8.78671 35.4807 8.78671 35.0607 8.96017ZM29.5765 15.1412H26.5369C26.4041 15.142 26.2725 15.1155 26.1496 15.0633C26.0268 15.0111 25.9152 14.9341 25.8213 14.837C25.7273 14.7398 25.653 14.6242 25.6026 14.4971C25.5521 14.37 25.5266 14.2338 25.5274 14.0963V12.3762C25.5257 12.0865 25.5792 11.7992 25.6849 11.5308C26.559 9.32991 29.5765 10.058 29.5765 12.3357V15.1412Z" fill="#114B47"/>
<path fill-rule="evenodd" clip-rule="evenodd" d="M37.0119 5.43848C35.8359 5.43848 35.8359 7.28832 37.0119 7.28832C38.1881 7.28832 38.1881 5.43848 37.0119 5.43848Z" fill="#114B47"/>
<path fill-rule="evenodd" clip-rule="evenodd" d="M18.7385 11.071H15.8785C17.0968 9.23365 18.4656 7.30172 19.6477 5.43942C19.3889 5.0611 19.0013 4.79805 18.5629 4.70302C17.2233 6.73566 15.8535 8.78594 14.5088 10.831V12.4555H15.8324C16.6864 12.4555 17.427 12.4555 18.0401 12.4493H18.8539C20.6051 12.4493 21.2152 13.2542 21.2152 15.1435H13.4581C13.4448 15.1425 13.4314 15.1425 13.418 15.1435H12.7446C12.7446 11.6973 12.7275 8.25103 12.7275 4.80377C12.3086 4.63198 11.842 4.63198 11.423 4.80377C11.423 8.25139 11.423 11.698 11.423 15.1435C10.7205 15.1435 8.99352 15.1363 8.28907 15.1363C7.58462 15.1363 7.25247 14.7644 7.25247 13.7351V9.28761C6.83345 9.11583 6.36692 9.11583 5.94791 9.28761V13.6987C5.94791 14.8651 5.5164 15.1342 4.67044 15.1342C3.99509 15.1342 3.4823 15.1414 2.80795 15.1414C2.23394 15.1414 1.77233 15.0936 1.77233 14.4975C1.77233 11.4054 1.77233 7.8927 1.77233 4.80169C1.35332 4.6299 0.886789 4.6299 0.467773 4.80169V14.5058C0.467773 15.8363 0.858137 16.4979 2.13961 16.4979C2.94844 16.4979 4.26603 16.4896 5.07486 16.4896C5.88368 16.4896 6.19677 16.3265 6.56205 15.7522C6.88518 16.3182 7.66591 16.4896 8.33828 16.4896H13.427C13.4418 16.493 13.457 16.4947 13.4721 16.4948H22.7275C22.7686 15.9827 22.7887 15.7906 22.7887 15.4562C22.7747 11.8406 21.4841 11.071 18.7385 11.071Z" fill="#114B47"/>
<path fill-rule="evenodd" clip-rule="evenodd" d="M8.53475 27.1585H9.1212L9.95354 24.3603L10.7869 27.1585H11.3723L12.4666 23.4769C12.2631 23.4029 12.0413 23.4029 11.8378 23.4769L11.0761 26.2928L10.2427 23.4769C10.0574 23.3987 9.84973 23.3987 9.66435 23.4769L8.83201 26.2928L8.06214 23.4769C7.86532 23.3945 7.64534 23.3945 7.44852 23.4769L8.53475 27.1585ZM35.7826 24.7598V24.8317L35.0913 24.912C33.9547 25.0288 33.3974 25.4168 33.3974 26.127C33.3974 26.7643 33.8841 27.2169 34.5965 27.2169C35.1124 27.2169 35.578 26.9541 35.7826 26.5307V27.1564H36.3751V24.7931C36.3751 23.9411 35.7705 23.4154 34.9139 23.4154C34.1663 23.4154 33.5808 23.8899 33.4751 24.6179C33.6418 24.7231 33.8398 24.762 34.0322 24.7274C34.0817 24.232 34.4273 23.9337 34.9139 23.9337C35.4369 23.9337 35.7826 24.2539 35.7826 24.7566V24.7598ZM33.997 26.1155C33.997 25.7276 34.3709 25.471 35.0913 25.3907L35.7826 25.3104V25.4898C35.7826 26.2303 35.3795 26.7059 34.6883 26.7059C34.2791 26.7059 33.997 26.4649 33.997 26.1198V26.1155ZM26.3812 24.7598V24.8317L25.689 24.912C24.5533 25.0288 23.9951 25.4168 23.9951 26.127C23.9951 26.7643 24.4828 27.2169 25.1952 27.2169C25.7111 27.2169 26.1767 26.9541 26.3812 26.5307V27.1564H26.9737V24.7931C26.9737 23.9411 26.3741 23.4154 25.5126 23.4154C24.765 23.4154 24.1785 23.8899 24.0727 24.6179C24.2399 24.7229 24.4382 24.7618 24.6309 24.7274C24.6803 24.232 25.0259 23.9337 25.5126 23.9337C26.0356 23.9337 26.3812 24.2539 26.3812 24.7566V24.7598ZM24.5976 26.1155C24.5976 25.7276 24.9715 25.471 25.6909 25.3907L26.3832 25.3104V25.4898C26.3832 26.2303 25.9801 26.7059 25.2889 26.7059C24.8798 26.7059 24.5976 26.4649 24.5976 26.1198V26.1155ZM15.1963 24.7598V24.8317L14.504 24.912C13.3624 25.0257 12.8082 25.4136 12.8082 26.1239C12.8082 26.7611 13.2949 27.2138 14.0083 27.2138C14.5232 27.2138 14.9887 26.951 15.1943 26.5275V27.1533H15.7868V24.7931C15.7868 23.9411 15.1872 23.4154 14.3257 23.4154C13.578 23.4154 12.9915 23.8899 12.8858 24.6179C13.0525 24.7231 13.2505 24.762 13.443 24.7274C13.4924 24.232 13.839 23.9337 14.3257 23.9337C14.8476 23.9337 15.1943 24.2539 15.1943 24.7566L15.1963 24.7598ZM13.4097 26.1155C13.4097 25.7276 13.7846 25.471 14.504 25.3907L15.1963 25.3104V25.4898C15.1963 26.2303 14.7932 26.7059 14.102 26.7059C13.6929 26.7059 13.4097 26.4649 13.4097 26.1198V26.1155ZM28.5446 22.0481C28.3522 21.9683 28.1375 21.9683 27.945 22.0481V27.1585H28.5446V22.0481ZM0.522939 22.6395C0.449385 22.4493 0.449385 22.2372 0.522939 22.047H4.19582C4.26937 22.2372 4.26937 22.4493 4.19582 22.6395H2.68434V27.1585H2.04147V22.6332L0.522939 22.6395ZM30.1166 23.4738C29.9256 23.3954 29.713 23.3954 29.522 23.4738V27.1585H30.1216V25.5409C30.1216 24.5699 30.5458 23.9765 31.2088 23.9765C31.7127 23.9765 32.015 24.3352 32.015 24.8317V27.1585H32.6145V24.716C32.6145 23.9337 32.0855 23.4154 31.3439 23.4154C31.0941 23.4168 30.8491 23.4872 30.6344 23.6195C30.4197 23.7517 30.243 23.9408 30.1226 24.1673V23.4748L30.1166 23.4738ZM17.3647 22.0481C17.1706 21.9683 16.9543 21.9683 16.7602 22.0481V27.1585H17.3647V25.7923L17.8373 25.3469L19.1785 27.1585H19.9272L18.2827 24.9308L19.8073 23.4769H19.0093L17.3647 24.9683V22.0481ZM21.1122 22.0481C20.9181 21.9683 20.7017 21.9683 20.5076 22.0481V27.1585H21.1122V25.7923L21.5858 25.3469L22.927 27.1585H23.6747L22.0302 24.9308L23.5548 23.4769H22.7577L21.1122 24.9683V22.0481ZM6.33304 24.7598V24.8317L5.64078 24.912C4.50516 25.0288 3.94693 25.4168 3.94693 26.127C3.94693 26.7643 4.43463 27.2169 5.14703 27.2169C5.66194 27.2169 6.12848 26.9541 6.33304 26.5307V27.1564H6.92553V24.7931C6.92553 23.9411 6.32598 23.4154 5.46444 23.4154C4.71677 23.4154 4.13032 23.8899 4.02451 24.6179C4.19158 24.7233 4.39 24.7622 4.58275 24.7274C4.63212 24.232 4.97775 23.9337 5.46444 23.9337C5.98741 23.9337 6.33304 24.2539 6.33304 24.7566V24.7598ZM4.54547 26.1155C4.54547 25.7276 4.91931 25.471 5.63877 25.3907L6.33102 25.3104V25.4898C6.33102 26.2303 5.92796 26.7059 5.23671 26.7059C4.82962 26.7027 4.54547 26.4618 4.54547 26.1155Z" fill="#114B47"/>
</g>
</g>
<defs>
<clipPath id="clip0_185_1827">
<rect width="73" height="32" fill="white"/>
</clipPath>
</defs>
</svg>
